<?xml version="1.0" encoding="utf-8" standalone="no"?><!DOCTYPE svg PUBLIC "-//W3C//DTD SVG 1.1//EN" "http://www.w3.org/Graphics/SVG/1.1/DTD/svg11.dtd">
<svg preserveAspectRatio="xMinYMin meet" width="100%" height="100%" viewBox="0 0 800.000 800.000"  version="1.1" xmlns="http://www.w3.org/2000/svg" xmlns:xlink="http://www.w3.org/1999/xlink">
  <desc>Matlab Figure Converted by PLOT2SVG written by Juerg Schwizer</desc>
  <g id="topgroup">
  <rect x="0" y="0" width="800.000" height="800.000" fill="#ffffff" stroke="none" />
  <g id ="ID000000">
  <clipPath id="ID000001">
    <rect x="104.000" y="60.000" width="620.000" height="652.000"/>
  </clipPath>
      <polygon fill="#ffffff" fill-opacity="1.00" stroke="none" stroke-width="0.5pt" stroke-opacity="1.00" stroke-dasharray="none" points="104.000,712.000 724.000,712.000 724.000,60.000 104.000,60.000 "/>
      <polygon fill="#ffffff" fill-opacity="1.00" stroke="none" stroke-width="0.5pt" stroke-opacity="1.00" stroke-dasharray="none" points="104.000,60.000 724.000,60.000 724.000,60.000 104.000,60.000 "/>
      <polygon fill="#ffffff" fill-opacity="1.00" stroke="none" stroke-width="0.5pt" stroke-opacity="1.00" stroke-dasharray="none" points="104.000,712.000 104.000,712.000 104.000,60.000 104.000,60.000 "/>
    <g>
<g id="ID000002" clip-path="url(#ID000001)" >
      <polygon fill="#000000" fill-opacity="0.30" stroke="#000000" stroke-width="0.5pt" stroke-opacity="1.00" stroke-dasharray="none" points="104.000,712.000 104.000,712.000 119.500,712.000 119.500,712.000 "/>
      <polygon fill="#000000" fill-opacity="0.30" stroke="#000000" stroke-width="0.5pt" stroke-opacity="1.00" stroke-dasharray="none" points="119.500,712.000 119.500,712.000 135.000,712.000 135.000,712.000 "/>
      <polygon fill="#000000" fill-opacity="0.30" stroke="#000000" stroke-width="0.5pt" stroke-opacity="1.00" stroke-dasharray="none" points="135.000,712.000 135.000,712.000 150.500,712.000 150.500,712.000 "/>
      <polygon fill="#000000" fill-opacity="0.30" stroke="#000000" stroke-width="0.5pt" stroke-opacity="1.00" stroke-dasharray="none" points="150.500,712.000 150.500,712.000 166.000,712.000 166.000,712.000 "/>
      <polygon fill="#000000" fill-opacity="0.30" stroke="#000000" stroke-width="0.5pt" stroke-opacity="1.00" stroke-dasharray="none" points="166.000,712.000 166.000,712.000 181.500,712.000 181.500,712.000 "/>
      <polygon fill="#000000" fill-opacity="0.30" stroke="#000000" stroke-width="0.5pt" stroke-opacity="1.00" stroke-dasharray="none" points="181.500,712.000 181.500,712.000 197.000,712.000 197.000,712.000 "/>
      <polygon fill="#000000" fill-opacity="0.30" stroke="#000000" stroke-width="0.5pt" stroke-opacity="1.00" stroke-dasharray="none" points="197.000,712.000 197.000,712.000 212.500,712.000 212.500,712.000 "/>
      <polygon fill="#000000" fill-opacity="0.30" stroke="#000000" stroke-width="0.5pt" stroke-opacity="1.00" stroke-dasharray="none" points="212.500,712.000 212.500,712.000 228.000,712.000 228.000,712.000 "/>
      <polygon fill="#000000" fill-opacity="0.30" stroke="#000000" stroke-width="0.5pt" stroke-opacity="1.00" stroke-dasharray="none" points="228.000,712.000 228.000,712.000 243.500,712.000 243.500,712.000 "/>
      <polygon fill="#000000" fill-opacity="0.30" stroke="#000000" stroke-width="0.5pt" stroke-opacity="1.00" stroke-dasharray="none" points="243.500,712.000 243.500,712.000 259.000,712.000 259.000,712.000 "/>
      <polygon fill="#000000" fill-opacity="0.30" stroke="#000000" stroke-width="0.5pt" stroke-opacity="1.00" stroke-dasharray="none" points="259.000,712.000 259.000,712.000 274.500,712.000 274.500,712.000 "/>
      <polygon fill="#000000" fill-opacity="0.30" stroke="#000000" stroke-width="0.5pt" stroke-opacity="1.00" stroke-dasharray="none" points="274.500,712.000 274.500,709.392 290.000,709.392 290.000,712.000 "/>
      <polygon fill="#000000" fill-opacity="0.30" stroke="#000000" stroke-width="0.5pt" stroke-opacity="1.00" stroke-dasharray="none" points="290.000,712.000 290.000,712.000 305.500,712.000 305.500,712.000 "/>
      <polygon fill="#000000" fill-opacity="0.30" stroke="#000000" stroke-width="0.5pt" stroke-opacity="1.00" stroke-dasharray="none" points="305.500,712.000 305.500,709.392 321.000,709.392 321.000,712.000 "/>
      <polygon fill="#000000" fill-opacity="0.30" stroke="#000000" stroke-width="0.5pt" stroke-opacity="1.00" stroke-dasharray="none" points="321.000,712.000 321.000,688.528 336.500,688.528 336.500,712.000 "/>
      <polygon fill="#000000" fill-opacity="0.30" stroke="#000000" stroke-width="0.5pt" stroke-opacity="1.00" stroke-dasharray="none" points="336.500,712.000 336.500,672.880 352.000,672.880 352.000,712.000 "/>
      <polygon fill="#000000" fill-opacity="0.30" stroke="#000000" stroke-width="0.5pt" stroke-opacity="1.00" stroke-dasharray="none" points="352.000,712.000 352.000,633.760 367.500,633.760 367.500,712.000 "/>
      <polygon fill="#000000" fill-opacity="0.30" stroke="#000000" stroke-width="0.5pt" stroke-opacity="1.00" stroke-dasharray="none" points="367.500,712.000 367.500,568.560 383.000,568.560 383.000,712.000 "/>
      <polygon fill="#000000" fill-opacity="0.30" stroke="#000000" stroke-width="0.5pt" stroke-opacity="1.00" stroke-dasharray="none" points="383.000,712.000 383.000,422.512 398.500,422.512 398.500,712.000 "/>
      <polygon fill="#000000" fill-opacity="0.30" stroke="#000000" stroke-width="0.5pt" stroke-opacity="1.00" stroke-dasharray="none" points="398.500,712.000 398.500,279.072 414.000,279.072 414.000,712.000 "/>
      <polygon fill="#000000" fill-opacity="0.30" stroke="#000000" stroke-width="0.5pt" stroke-opacity="1.00" stroke-dasharray="none" points="414.000,712.000 414.000,190.400 429.500,190.400 429.500,712.000 "/>
      <polygon fill="#000000" fill-opacity="0.30" stroke="#000000" stroke-width="0.5pt" stroke-opacity="1.00" stroke-dasharray="none" points="429.500,712.000 429.500,213.872 445.000,213.872 445.000,712.000 "/>
      <polygon fill="#000000" fill-opacity="0.30" stroke="#000000" stroke-width="0.5pt" stroke-opacity="1.00" stroke-dasharray="none" points="445.000,712.000 445.000,182.576 460.500,182.576 460.500,712.000 "/>
      <polygon fill="#000000" fill-opacity="0.30" stroke="#000000" stroke-width="0.5pt" stroke-opacity="1.00" stroke-dasharray="none" points="460.500,712.000 460.500,383.392 476.000,383.392 476.000,712.000 "/>
      <polygon fill="#000000" fill-opacity="0.30" stroke="#000000" stroke-width="0.5pt" stroke-opacity="1.00" stroke-dasharray="none" points="476.000,712.000 476.000,490.320 491.500,490.320 491.500,712.000 "/>
      <polygon fill="#000000" fill-opacity="0.30" stroke="#000000" stroke-width="0.5pt" stroke-opacity="1.00" stroke-dasharray="none" points="491.500,712.000 491.500,586.816 507.000,586.816 507.000,712.000 "/>
      <polygon fill="#000000" fill-opacity="0.30" stroke="#000000" stroke-width="0.5pt" stroke-opacity="1.00" stroke-dasharray="none" points="507.000,712.000 507.000,649.408 522.500,649.408 522.500,712.000 "/>
      <polygon fill="#000000" fill-opacity="0.30" stroke="#000000" stroke-width="0.5pt" stroke-opacity="1.00" stroke-dasharray="none" points="522.500,712.000 522.500,698.960 538.000,698.960 538.000,712.000 "/>
      <polygon fill="#000000" fill-opacity="0.30" stroke="#000000" stroke-width="0.5pt" stroke-opacity="1.00" stroke-dasharray="none" points="538.000,712.000 538.000,704.176 553.500,704.176 553.500,712.000 "/>
      <polygon fill="#000000" fill-opacity="0.30" stroke="#000000" stroke-width="0.5pt" stroke-opacity="1.00" stroke-dasharray="none" points="553.500,712.000 553.500,709.392 569.000,709.392 569.000,712.000 "/>
      <polygon fill="#000000" fill-opacity="0.30" stroke="#000000" stroke-width="0.5pt" stroke-opacity="1.00" stroke-dasharray="none" points="569.000,712.000 569.000,712.000 584.500,712.000 584.500,712.000 "/>
      <polygon fill="#000000" fill-opacity="0.30" stroke="#000000" stroke-width="0.5pt" stroke-opacity="1.00" stroke-dasharray="none" points="584.500,712.000 584.500,712.000 600.000,712.000 600.000,712.000 "/>
      <polygon fill="#000000" fill-opacity="0.30" stroke="#000000" stroke-width="0.5pt" stroke-opacity="1.00" stroke-dasharray="none" points="600.000,712.000 600.000,712.000 615.500,712.000 615.500,712.000 "/>
      <polygon fill="#000000" fill-opacity="0.30" stroke="#000000" stroke-width="0.5pt" stroke-opacity="1.00" stroke-dasharray="none" points="615.500,712.000 615.500,712.000 631.000,712.000 631.000,712.000 "/>
      <polygon fill="#000000" fill-opacity="0.30" stroke="#000000" stroke-width="0.5pt" stroke-opacity="1.00" stroke-dasharray="none" points="631.000,712.000 631.000,712.000 646.500,712.000 646.500,712.000 "/>
      <polygon fill="#000000" fill-opacity="0.30" stroke="#000000" stroke-width="0.5pt" stroke-opacity="1.00" stroke-dasharray="none" points="646.500,712.000 646.500,712.000 662.000,712.000 662.000,712.000 "/>
      <polygon fill="#000000" fill-opacity="0.30" stroke="#000000" stroke-width="0.5pt" stroke-opacity="1.00" stroke-dasharray="none" points="662.000,712.000 662.000,712.000 677.500,712.000 677.500,712.000 "/>
      <polygon fill="#000000" fill-opacity="0.30" stroke="#000000" stroke-width="0.5pt" stroke-opacity="1.00" stroke-dasharray="none" points="677.500,712.000 677.500,712.000 693.000,712.000 693.000,712.000 "/>
      <polygon fill="#000000" fill-opacity="0.30" stroke="#000000" stroke-width="0.5pt" stroke-opacity="1.00" stroke-dasharray="none" points="693.000,712.000 693.000,712.000 708.500,712.000 708.500,712.000 "/>
      <polygon fill="#000000" fill-opacity="0.30" stroke="#000000" stroke-width="0.5pt" stroke-opacity="1.00" stroke-dasharray="none" points="708.500,712.000 708.500,712.000 724.000,712.000 724.000,712.000 "/>
      <polygon fill="#000000" fill-opacity="0.30" stroke="#000000" stroke-width="0.5pt" stroke-opacity="1.00" stroke-dasharray="none" points="724.000,712.000 724.000,712.000 739.500,712.000 739.500,712.000 "/>
</g>
<g id="ID000003" clip-path="url(#ID000001)" >
      <polygon fill="#ff0000" fill-opacity="0.30" stroke="#ff0000" stroke-width="0.5pt" stroke-opacity="1.00" stroke-dasharray="none" points="104.000,712.000 104.000,712.000 119.500,712.000 119.500,712.000 "/>
      <polygon fill="#ff0000" fill-opacity="0.30" stroke="#ff0000" stroke-width="0.5pt" stroke-opacity="1.00" stroke-dasharray="none" points="119.500,712.000 119.500,712.000 135.000,712.000 135.000,712.000 "/>
      <polygon fill="#ff0000" fill-opacity="0.30" stroke="#ff0000" stroke-width="0.5pt" stroke-opacity="1.00" stroke-dasharray="none" points="135.000,712.000 135.000,712.000 150.500,712.000 150.500,712.000 "/>
      <polygon fill="#ff0000" fill-opacity="0.30" stroke="#ff0000" stroke-width="0.5pt" stroke-opacity="1.00" stroke-dasharray="none" points="150.500,712.000 150.500,712.000 166.000,712.000 166.000,712.000 "/>
      <polygon fill="#ff0000" fill-opacity="0.30" stroke="#ff0000" stroke-width="0.5pt" stroke-opacity="1.00" stroke-dasharray="none" points="166.000,712.000 166.000,712.000 181.500,712.000 181.500,712.000 "/>
      <polygon fill="#ff0000" fill-opacity="0.30" stroke="#ff0000" stroke-width="0.5pt" stroke-opacity="1.00" stroke-dasharray="none" points="181.500,712.000 181.500,712.000 197.000,712.000 197.000,712.000 "/>
      <polygon fill="#ff0000" fill-opacity="0.30" stroke="#ff0000" stroke-width="0.5pt" stroke-opacity="1.00" stroke-dasharray="none" points="197.000,712.000 197.000,712.000 212.500,712.000 212.500,712.000 "/>
      <polygon fill="#ff0000" fill-opacity="0.30" stroke="#ff0000" stroke-width="0.5pt" stroke-opacity="1.00" stroke-dasharray="none" points="212.500,712.000 212.500,712.000 228.000,712.000 228.000,712.000 "/>
      <polygon fill="#ff0000" fill-opacity="0.30" stroke="#ff0000" stroke-width="0.5pt" stroke-opacity="1.00" stroke-dasharray="none" points="228.000,712.000 228.000,712.000 243.500,712.000 243.500,712.000 "/>
      <polygon fill="#ff0000" fill-opacity="0.30" stroke="#ff0000" stroke-width="0.5pt" stroke-opacity="1.00" stroke-dasharray="none" points="243.500,712.000 243.500,712.000 259.000,712.000 259.000,712.000 "/>
      <polygon fill="#ff0000" fill-opacity="0.30" stroke="#ff0000" stroke-width="0.5pt" stroke-opacity="1.00" stroke-dasharray="none" points="259.000,712.000 259.000,712.000 274.500,712.000 274.500,712.000 "/>
      <polygon fill="#ff0000" fill-opacity="0.30" stroke="#ff0000" stroke-width="0.5pt" stroke-opacity="1.00" stroke-dasharray="none" points="274.500,712.000 274.500,712.000 290.000,712.000 290.000,712.000 "/>
      <polygon fill="#ff0000" fill-opacity="0.30" stroke="#ff0000" stroke-width="0.5pt" stroke-opacity="1.00" stroke-dasharray="none" points="290.000,712.000 290.000,712.000 305.500,712.000 305.500,712.000 "/>
      <polygon fill="#ff0000" fill-opacity="0.30" stroke="#ff0000" stroke-width="0.5pt" stroke-opacity="1.00" stroke-dasharray="none" points="305.500,712.000 305.500,712.000 321.000,712.000 321.000,712.000 "/>
      <polygon fill="#ff0000" fill-opacity="0.30" stroke="#ff0000" stroke-width="0.5pt" stroke-opacity="1.00" stroke-dasharray="none" points="321.000,712.000 321.000,706.784 336.500,706.784 336.500,712.000 "/>
      <polygon fill="#ff0000" fill-opacity="0.30" stroke="#ff0000" stroke-width="0.5pt" stroke-opacity="1.00" stroke-dasharray="none" points="336.500,712.000 336.500,662.448 352.000,662.448 352.000,712.000 "/>
      <polygon fill="#ff0000" fill-opacity="0.30" stroke="#ff0000" stroke-width="0.5pt" stroke-opacity="1.00" stroke-dasharray="none" points="352.000,712.000 352.000,636.368 367.500,636.368 367.500,712.000 "/>
      <polygon fill="#ff0000" fill-opacity="0.30" stroke="#ff0000" stroke-width="0.5pt" stroke-opacity="1.00" stroke-dasharray="none" points="367.500,712.000 367.500,516.400 383.000,516.400 383.000,712.000 "/>
      <polygon fill="#ff0000" fill-opacity="0.30" stroke="#ff0000" stroke-width="0.5pt" stroke-opacity="1.00" stroke-dasharray="none" points="383.000,712.000 383.000,414.688 398.500,414.688 398.500,712.000 "/>
      <polygon fill="#ff0000" fill-opacity="0.30" stroke="#ff0000" stroke-width="0.5pt" stroke-opacity="1.00" stroke-dasharray="none" points="398.500,712.000 398.500,297.328 414.000,297.328 414.000,712.000 "/>
      <polygon fill="#ff0000" fill-opacity="0.30" stroke="#ff0000" stroke-width="0.5pt" stroke-opacity="1.00" stroke-dasharray="none" points="414.000,712.000 414.000,219.088 429.500,219.088 429.500,712.000 "/>
      <polygon fill="#ff0000" fill-opacity="0.30" stroke="#ff0000" stroke-width="0.5pt" stroke-opacity="1.00" stroke-dasharray="none" points="429.500,712.000 429.500,200.832 445.000,200.832 445.000,712.000 "/>
      <polygon fill="#ff0000" fill-opacity="0.30" stroke="#ff0000" stroke-width="0.5pt" stroke-opacity="1.00" stroke-dasharray="none" points="445.000,712.000 445.000,208.656 460.500,208.656 460.500,712.000 "/>
      <polygon fill="#ff0000" fill-opacity="0.30" stroke="#ff0000" stroke-width="0.5pt" stroke-opacity="1.00" stroke-dasharray="none" points="460.500,712.000 460.500,391.216 476.000,391.216 476.000,712.000 "/>
      <polygon fill="#ff0000" fill-opacity="0.30" stroke="#ff0000" stroke-width="0.5pt" stroke-opacity="1.00" stroke-dasharray="none" points="476.000,712.000 476.000,508.576 491.500,508.576 491.500,712.000 "/>
      <polygon fill="#ff0000" fill-opacity="0.30" stroke="#ff0000" stroke-width="0.5pt" stroke-opacity="1.00" stroke-dasharray="none" points="491.500,712.000 491.500,571.168 507.000,571.168 507.000,712.000 "/>
      <polygon fill="#ff0000" fill-opacity="0.30" stroke="#ff0000" stroke-width="0.5pt" stroke-opacity="1.00" stroke-dasharray="none" points="507.000,712.000 507.000,641.584 522.500,641.584 522.500,712.000 "/>
      <polygon fill="#ff0000" fill-opacity="0.30" stroke="#ff0000" stroke-width="0.5pt" stroke-opacity="1.00" stroke-dasharray="none" points="522.500,712.000 522.500,678.096 538.000,678.096 538.000,712.000 "/>
      <polygon fill="#ff0000" fill-opacity="0.30" stroke="#ff0000" stroke-width="0.5pt" stroke-opacity="1.00" stroke-dasharray="none" points="538.000,712.000 538.000,712.000 553.500,712.000 553.500,712.000 "/>
      <polygon fill="#ff0000" fill-opacity="0.30" stroke="#ff0000" stroke-width="0.5pt" stroke-opacity="1.00" stroke-dasharray="none" points="553.500,712.000 553.500,706.784 569.000,706.784 569.000,712.000 "/>
      <polygon fill="#ff0000" fill-opacity="0.30" stroke="#ff0000" stroke-width="0.5pt" stroke-opacity="1.00" stroke-dasharray="none" points="569.000,712.000 569.000,709.392 584.500,709.392 584.500,712.000 "/>
      <polygon fill="#ff0000" fill-opacity="0.30" stroke="#ff0000" stroke-width="0.5pt" stroke-opacity="1.00" stroke-dasharray="none" points="584.500,712.000 584.500,712.000 600.000,712.000 600.000,712.000 "/>
      <polygon fill="#ff0000" fill-opacity="0.30" stroke="#ff0000" stroke-width="0.5pt" stroke-opacity="1.00" stroke-dasharray="none" points="600.000,712.000 600.000,712.000 615.500,712.000 615.500,712.000 "/>
      <polygon fill="#ff0000" fill-opacity="0.30" stroke="#ff0000" stroke-width="0.5pt" stroke-opacity="1.00" stroke-dasharray="none" points="615.500,712.000 615.500,712.000 631.000,712.000 631.000,712.000 "/>
      <polygon fill="#ff0000" fill-opacity="0.30" stroke="#ff0000" stroke-width="0.5pt" stroke-opacity="1.00" stroke-dasharray="none" points="631.000,712.000 631.000,712.000 646.500,712.000 646.500,712.000 "/>
      <polygon fill="#ff0000" fill-opacity="0.30" stroke="#ff0000" stroke-width="0.5pt" stroke-opacity="1.00" stroke-dasharray="none" points="646.500,712.000 646.500,712.000 662.000,712.000 662.000,712.000 "/>
      <polygon fill="#ff0000" fill-opacity="0.30" stroke="#ff0000" stroke-width="0.5pt" stroke-opacity="1.00" stroke-dasharray="none" points="662.000,712.000 662.000,712.000 677.500,712.000 677.500,712.000 "/>
      <polygon fill="#ff0000" fill-opacity="0.30" stroke="#ff0000" stroke-width="0.5pt" stroke-opacity="1.00" stroke-dasharray="none" points="677.500,712.000 677.500,712.000 693.000,712.000 693.000,712.000 "/>
      <polygon fill="#ff0000" fill-opacity="0.30" stroke="#ff0000" stroke-width="0.5pt" stroke-opacity="1.00" stroke-dasharray="none" points="693.000,712.000 693.000,712.000 708.500,712.000 708.500,712.000 "/>
      <polygon fill="#ff0000" fill-opacity="0.30" stroke="#ff0000" stroke-width="0.5pt" stroke-opacity="1.00" stroke-dasharray="none" points="708.500,712.000 708.500,712.000 724.000,712.000 724.000,712.000 "/>
      <polygon fill="#ff0000" fill-opacity="0.30" stroke="#ff0000" stroke-width="0.5pt" stroke-opacity="1.00" stroke-dasharray="none" points="724.000,712.000 724.000,712.000 739.500,712.000 739.500,712.000 "/>
</g>
<g id="ID000004" >
  <g transform="translate(413.500,754.650)">
    <g transform="rotate(-0.0)">
      <text x="0.000" y="0.000" font-family="Helvetica" text-anchor="middle" font-size="17pt" fill="#000000" ><tspan>r</tspan><tspan dy="6.8pt" font-size="12pt">noise</tspan><tspan dy="-6.8pt" font-size="17pt"></tspan></text>
    </g>
  </g>
</g>
<g id="ID000005" >
  <g transform="translate(62.250,387.500)">
    <g transform="rotate(-90.0)">
      <text x="0.000" y="0.000" font-family="Helvetica" text-anchor="middle" font-size="17pt" fill="#000000" >Number of pairs</text>
    </g>
  </g>
</g>
<g id="ID000006" >
  <g transform="translate(413.500,46.750)">
    <g transform="rotate(-0.0)">
      <text x="0.000" y="0.000" font-family="Helvetica" text-anchor="middle" font-size="19pt" fill="#000000" >Blanco V1: Pre- vs Post-training, all pairs and conditions</text>
    </g>
  </g>
</g>
<g id="ID000007" >
</g>
<g id="ID000008" >
</g>
    </g>
    <g>
      <polyline fill="none" stroke="#000000" stroke-width="0.5pt" stroke-dasharray="none" points="166.000,712.000 166.000,705.480 "/>
      <polyline fill="none" stroke="#000000" stroke-width="0.5pt" stroke-dasharray="none" points="228.000,712.000 228.000,705.480 "/>
      <polyline fill="none" stroke="#000000" stroke-width="0.5pt" stroke-dasharray="none" points="290.000,712.000 290.000,705.480 "/>
      <polyline fill="none" stroke="#000000" stroke-width="0.5pt" stroke-dasharray="none" points="352.000,712.000 352.000,705.480 "/>
      <polyline fill="none" stroke="#000000" stroke-width="0.5pt" stroke-dasharray="none" points="414.000,712.000 414.000,705.480 "/>
      <polyline fill="none" stroke="#000000" stroke-width="0.5pt" stroke-dasharray="none" points="476.000,712.000 476.000,705.480 "/>
      <polyline fill="none" stroke="#000000" stroke-width="0.5pt" stroke-dasharray="none" points="538.000,712.000 538.000,705.480 "/>
      <polyline fill="none" stroke="#000000" stroke-width="0.5pt" stroke-dasharray="none" points="600.000,712.000 600.000,705.480 "/>
      <polyline fill="none" stroke="#000000" stroke-width="0.5pt" stroke-dasharray="none" points="662.000,712.000 662.000,705.480 "/>
      <polyline fill="none" stroke="#000000" stroke-width="0.5pt" stroke-dasharray="none" points="104.000,712.000 724.000,712.000 "/>
      <polyline fill="none" stroke="#000000" stroke-width="0.5pt" stroke-dasharray="none" points="166.000,60.000 166.000,66.520 "/>
      <polyline fill="none" stroke="#000000" stroke-width="0.5pt" stroke-dasharray="none" points="228.000,60.000 228.000,66.520 "/>
      <polyline fill="none" stroke="#000000" stroke-width="0.5pt" stroke-dasharray="none" points="290.000,60.000 290.000,66.520 "/>
      <polyline fill="none" stroke="#000000" stroke-width="0.5pt" stroke-dasharray="none" points="352.000,60.000 352.000,66.520 "/>
      <polyline fill="none" stroke="#000000" stroke-width="0.5pt" stroke-dasharray="none" points="414.000,60.000 414.000,66.520 "/>
      <polyline fill="none" stroke="#000000" stroke-width="0.5pt" stroke-dasharray="none" points="476.000,60.000 476.000,66.520 "/>
      <polyline fill="none" stroke="#000000" stroke-width="0.5pt" stroke-dasharray="none" points="538.000,60.000 538.000,66.520 "/>
      <polyline fill="none" stroke="#000000" stroke-width="0.5pt" stroke-dasharray="none" points="600.000,60.000 600.000,66.520 "/>
      <polyline fill="none" stroke="#000000" stroke-width="0.5pt" stroke-dasharray="none" points="662.000,60.000 662.000,66.520 "/>
      <polyline fill="none" stroke="#000000" stroke-width="0.5pt" stroke-dasharray="none" points="104.000,60.000 724.000,60.000 "/>
  <g transform="translate(104.000,741.560)">
    <g transform="rotate(-0.0)">
      <text x="0.000" y="0.000" font-family="Helvetica" text-anchor="middle" font-size="14pt" fill="#000000" >-1</text>
    </g>
  </g>
  <g transform="translate(166.000,741.560)">
    <g transform="rotate(-0.0)">
      <text x="0.000" y="0.000" font-family="Helvetica" text-anchor="middle" font-size="14pt" fill="#000000" >-0.8</text>
    </g>
  </g>
  <g transform="translate(228.000,741.560)">
    <g transform="rotate(-0.0)">
      <text x="0.000" y="0.000" font-family="Helvetica" text-anchor="middle" font-size="14pt" fill="#000000" >-0.6</text>
    </g>
  </g>
  <g transform="translate(290.000,741.560)">
    <g transform="rotate(-0.0)">
      <text x="0.000" y="0.000" font-family="Helvetica" text-anchor="middle" font-size="14pt" fill="#000000" >-0.4</text>
    </g>
  </g>
  <g transform="translate(352.000,741.560)">
    <g transform="rotate(-0.0)">
      <text x="0.000" y="0.000" font-family="Helvetica" text-anchor="middle" font-size="14pt" fill="#000000" >-0.2</text>
    </g>
  </g>
  <g transform="translate(414.000,741.560)">
    <g transform="rotate(-0.0)">
      <text x="0.000" y="0.000" font-family="Helvetica" text-anchor="middle" font-size="14pt" fill="#000000" >0</text>
    </g>
  </g>
  <g transform="translate(476.000,741.560)">
    <g transform="rotate(-0.0)">
      <text x="0.000" y="0.000" font-family="Helvetica" text-anchor="middle" font-size="14pt" fill="#000000" >0.2</text>
    </g>
  </g>
  <g transform="translate(538.000,741.560)">
    <g transform="rotate(-0.0)">
      <text x="0.000" y="0.000" font-family="Helvetica" text-anchor="middle" font-size="14pt" fill="#000000" >0.4</text>
    </g>
  </g>
  <g transform="translate(600.000,741.560)">
    <g transform="rotate(-0.0)">
      <text x="0.000" y="0.000" font-family="Helvetica" text-anchor="middle" font-size="14pt" fill="#000000" >0.6</text>
    </g>
  </g>
  <g transform="translate(662.000,741.560)">
    <g transform="rotate(-0.0)">
      <text x="0.000" y="0.000" font-family="Helvetica" text-anchor="middle" font-size="14pt" fill="#000000" >0.8</text>
    </g>
  </g>
  <g transform="translate(724.000,741.560)">
    <g transform="rotate(-0.0)">
      <text x="0.000" y="0.000" font-family="Helvetica" text-anchor="middle" font-size="14pt" fill="#000000" >1</text>
    </g>
  </g>
      <polyline fill="none" stroke="#000000" stroke-width="0.5pt" stroke-dasharray="none" points="104.000,581.600 110.520,581.600 "/>
      <polyline fill="none" stroke="#000000" stroke-width="0.5pt" stroke-dasharray="none" points="104.000,451.200 110.520,451.200 "/>
      <polyline fill="none" stroke="#000000" stroke-width="0.5pt" stroke-dasharray="none" points="104.000,320.800 110.520,320.800 "/>
      <polyline fill="none" stroke="#000000" stroke-width="0.5pt" stroke-dasharray="none" points="104.000,190.400 110.520,190.400 "/>
      <polyline fill="none" stroke="#000000" stroke-width="0.5pt" stroke-dasharray="none" points="104.000,712.000 104.000,60.000 "/>
      <polyline fill="none" stroke="#000000" stroke-width="0.5pt" stroke-dasharray="none" points="724.000,581.600 717.480,581.600 "/>
      <polyline fill="none" stroke="#000000" stroke-width="0.5pt" stroke-dasharray="none" points="724.000,451.200 717.480,451.200 "/>
      <polyline fill="none" stroke="#000000" stroke-width="0.5pt" stroke-dasharray="none" points="724.000,320.800 717.480,320.800 "/>
      <polyline fill="none" stroke="#000000" stroke-width="0.5pt" stroke-dasharray="none" points="724.000,190.400 717.480,190.400 "/>
      <polyline fill="none" stroke="#000000" stroke-width="0.5pt" stroke-dasharray="none" points="724.000,712.000 724.000,60.000 "/>
  <g transform="translate(91.600,718.300)">
    <g transform="rotate(-0.0)">
      <text x="0.000" y="0.000" font-family="Helvetica" text-anchor="end" font-size="14pt" fill="#000000" >0</text>
    </g>
  </g>
  <g transform="translate(91.600,587.900)">
    <g transform="rotate(-0.0)">
      <text x="0.000" y="0.000" font-family="Helvetica" text-anchor="end" font-size="14pt" fill="#000000" >50</text>
    </g>
  </g>
  <g transform="translate(91.600,457.500)">
    <g transform="rotate(-0.0)">
      <text x="0.000" y="0.000" font-family="Helvetica" text-anchor="end" font-size="14pt" fill="#000000" >100</text>
    </g>
  </g>
  <g transform="translate(91.600,327.100)">
    <g transform="rotate(-0.0)">
      <text x="0.000" y="0.000" font-family="Helvetica" text-anchor="end" font-size="14pt" fill="#000000" >150</text>
    </g>
  </g>
  <g transform="translate(91.600,196.700)">
    <g transform="rotate(-0.0)">
      <text x="0.000" y="0.000" font-family="Helvetica" text-anchor="end" font-size="14pt" fill="#000000" >200</text>
    </g>
  </g>
  <g transform="translate(91.600,66.300)">
    <g transform="rotate(-0.0)">
      <text x="0.000" y="0.000" font-family="Helvetica" text-anchor="end" font-size="14pt" fill="#000000" >250</text>
    </g>
  </g>
      <polyline fill="none" stroke="#000000" stroke-width="0.5pt" stroke-dasharray="none" points="104.000,712.000 104.000,705.480 "/>
      <polyline fill="none" stroke="#000000" stroke-width="0.5pt" stroke-dasharray="none" points="104.000,712.000 104.000,712.000 "/>
    </g>
  </g>
  <g id ="ID000009">
  <clipPath id="ID000010">
    <rect x="6735.750" y="582.250" width="208.500" height="49.625"/>
  </clipPath>
      <polygon fill="#ffffff" fill-opacity="1.00" stroke="none" stroke-width="0.5pt" stroke-opacity="1.00" stroke-dasharray="none" points="6735.750,631.875 6944.250,631.875 6944.250,582.250 6735.750,582.250 "/>
      <polygon fill="#ffffff" fill-opacity="1.00" stroke="none" stroke-width="0.5pt" stroke-opacity="1.00" stroke-dasharray="none" points="6735.750,582.250 6944.250,582.250 6944.250,582.250 6735.750,582.250 "/>
      <polygon fill="#ffffff" fill-opacity="1.00" stroke="none" stroke-width="0.5pt" stroke-opacity="1.00" stroke-dasharray="none" points="6735.750,631.875 6735.750,631.875 6735.750,582.250 6735.750,582.250 "/>
    <g>
<g id="ID000011" >
  <g transform="translate(6785.369,602.941)">
    <g transform="rotate(-0.0)">
      <text x="0.000" y="0.000" font-family="Helvetica" text-anchor="start" font-size="14pt" fill="#000000" >s343: Before Training</text>
    </g>
  </g>
</g>
<g id="ID000012" clip-path="url(#ID000010)" >
      <polygon fill="#000000" fill-opacity="1.00" stroke="#000000" stroke-width="0.5pt" stroke-opacity="1.00" stroke-dasharray="none" points="6743.250,604.237 6743.250,587.262 6780.750,587.262 6780.750,604.237 "/>
</g>
<g id="ID000013" >
  <g transform="translate(6785.369,625.769)">
    <g transform="rotate(-0.0)">
      <text x="0.000" y="0.000" font-family="Helvetica" text-anchor="start" font-size="14pt" fill="#000000" >s354: After Training</text>
    </g>
  </g>
</g>
<g id="ID000014" clip-path="url(#ID000010)" >
      <polygon fill="#ff0000" fill-opacity="1.00" stroke="#ff0000" stroke-width="0.5pt" stroke-opacity="1.00" stroke-dasharray="none" points="6743.250,626.862 6743.250,609.887 6780.750,609.887 6780.750,626.862 "/>
</g>
<g id="ID000015" >
</g>
<g id="ID000016" >
</g>
<g id="ID000017" >
</g>
    </g>
    <g>
      <polyline fill="none" stroke="#000000" stroke-width="0.5pt" stroke-dasharray="none" points="6735.750,631.875 6944.250,631.875 "/>
      <polyline fill="none" stroke="#000000" stroke-width="0.5pt" stroke-dasharray="none" points="6735.750,582.250 6944.250,582.250 "/>
      <polyline fill="none" stroke="#000000" stroke-width="0.5pt" stroke-dasharray="none" points="6735.750,631.875 6735.750,582.250 "/>
      <polyline fill="none" stroke="#000000" stroke-width="0.5pt" stroke-dasharray="none" points="6944.250,631.875 6944.250,582.250 "/>
      <polyline fill="none" stroke="#000000" stroke-width="0.5pt" stroke-dasharray="none" points="6735.750,631.875 6735.750,631.379 "/>
      <polyline fill="none" stroke="#000000" stroke-width="0.5pt" stroke-dasharray="none" points="6735.750,631.875 6735.750,631.875 "/>
    </g>
  </g>
  </g>
</svg>
