<?xml version="1.0" encoding="utf-8" standalone="no"?><!DOCTYPE svg PUBLIC "-//W3C//DTD SVG 1.1//EN" "http://www.w3.org/Graphics/SVG/1.1/DTD/svg11.dtd">
<svg preserveAspectRatio="xMinYMin meet" width="100%" height="100%" viewBox="0 0 800.000 800.000"  version="1.1" xmlns="http://www.w3.org/2000/svg" xmlns:xlink="http://www.w3.org/1999/xlink">
  <desc>Matlab Figure Converted by PLOT2SVG written by Juerg Schwizer</desc>
  <g id="topgroup">
  <rect x="0" y="0" width="800.000" height="800.000" fill="#ffffff" stroke="none" />
  <g id ="ID000000">
  <clipPath id="ID000001">
    <rect x="104.000" y="60.000" width="620.000" height="641.500"/>
  </clipPath>
      <polygon fill="#ffffff" fill-opacity="1.00" stroke="none" stroke-width="0.5pt" stroke-opacity="1.00" stroke-dasharray="none" points="104.000,701.500 724.000,701.500 724.000,60.000 104.000,60.000 "/>
      <polygon fill="#ffffff" fill-opacity="1.00" stroke="none" stroke-width="0.5pt" stroke-opacity="1.00" stroke-dasharray="none" points="104.000,60.000 724.000,60.000 724.000,60.000 104.000,60.000 "/>
      <polygon fill="#ffffff" fill-opacity="1.00" stroke="none" stroke-width="0.5pt" stroke-opacity="1.00" stroke-dasharray="none" points="104.000,701.500 104.000,701.500 104.000,60.000 104.000,60.000 "/>
    <g>
<g id="ID000002" clip-path="url(#ID000001)" >
      <polygon fill="#0000ff" fill-opacity="0.20" stroke="none" stroke-width="0.5pt" stroke-opacity="1.00" stroke-dasharray="none" points="130.957,573.228 157.913,699.118 184.870,652.473 211.826,582.298 238.783,579.123 265.739,569.986 292.696,571.271 319.652,572.419 346.609,584.651 373.565,671.816 400.522,615.066 427.478,575.324 454.435,590.067 481.391,623.778 508.348,624.271 535.304,573.152 562.261,522.992 562.261,230.765 535.304,262.008 508.348,313.092 481.391,270.755 454.435,331.456 427.478,345.730 400.522,343.450 373.565,243.341 346.609,364.866 319.652,369.565 292.696,334.577 265.739,356.255 238.783,343.556 211.826,347.805 184.870,280.461 157.913,255.615 130.957,348.709 "/>
</g>
<g id="ID000003" clip-path="url(#ID000001)" >
      <polyline fill="none" stroke="#0000ff" stroke-width="0.5pt" stroke-dasharray="none" points="130.957,460.968 157.913,477.366 184.870,466.467 211.826,465.051 238.783,461.340 265.739,463.121 292.696,452.924 319.652,470.992 346.609,474.759 373.565,457.578 400.522,479.258 427.478,460.527 454.435,460.762 481.391,447.266 508.348,468.682 535.304,417.580 562.261,376.879 "/>
<g>
      <polyline fill="#0000ff" fill-opacity="1.00" stroke="#0000ff" stroke-width="0.5pt" stroke-opacity="1.00" stroke-dasharray="none" points="128.157,463.768 133.757,458.168 "/>
      <polyline fill="#0000ff" fill-opacity="1.00" stroke="#0000ff" stroke-width="0.5pt" stroke-opacity="1.00" stroke-dasharray="none" points="128.157,458.168 133.757,463.768 "/>
      <polyline fill="#0000ff" fill-opacity="1.00" stroke="#0000ff" stroke-width="0.5pt" stroke-opacity="1.00" stroke-dasharray="none" points="155.113,480.166 160.713,474.566 "/>
      <polyline fill="#0000ff" fill-opacity="1.00" stroke="#0000ff" stroke-width="0.5pt" stroke-opacity="1.00" stroke-dasharray="none" points="155.113,474.566 160.713,480.166 "/>
      <polyline fill="#0000ff" fill-opacity="1.00" stroke="#0000ff" stroke-width="0.5pt" stroke-opacity="1.00" stroke-dasharray="none" points="182.070,469.267 187.670,463.667 "/>
      <polyline fill="#0000ff" fill-opacity="1.00" stroke="#0000ff" stroke-width="0.5pt" stroke-opacity="1.00" stroke-dasharray="none" points="182.070,463.667 187.670,469.267 "/>
      <polyline fill="#0000ff" fill-opacity="1.00" stroke="#0000ff" stroke-width="0.5pt" stroke-opacity="1.00" stroke-dasharray="none" points="209.026,467.851 214.626,462.251 "/>
      <polyline fill="#0000ff" fill-opacity="1.00" stroke="#0000ff" stroke-width="0.5pt" stroke-opacity="1.00" stroke-dasharray="none" points="209.026,462.251 214.626,467.851 "/>
      <polyline fill="#0000ff" fill-opacity="1.00" stroke="#0000ff" stroke-width="0.5pt" stroke-opacity="1.00" stroke-dasharray="none" points="235.983,464.140 241.583,458.540 "/>
      <polyline fill="#0000ff" fill-opacity="1.00" stroke="#0000ff" stroke-width="0.5pt" stroke-opacity="1.00" stroke-dasharray="none" points="235.983,458.540 241.583,464.140 "/>
      <polyline fill="#0000ff" fill-opacity="1.00" stroke="#0000ff" stroke-width="0.5pt" stroke-opacity="1.00" stroke-dasharray="none" points="262.939,465.921 268.539,460.321 "/>
      <polyline fill="#0000ff" fill-opacity="1.00" stroke="#0000ff" stroke-width="0.5pt" stroke-opacity="1.00" stroke-dasharray="none" points="262.939,460.321 268.539,465.921 "/>
      <polyline fill="#0000ff" fill-opacity="1.00" stroke="#0000ff" stroke-width="0.5pt" stroke-opacity="1.00" stroke-dasharray="none" points="289.896,455.724 295.496,450.124 "/>
      <polyline fill="#0000ff" fill-opacity="1.00" stroke="#0000ff" stroke-width="0.5pt" stroke-opacity="1.00" stroke-dasharray="none" points="289.896,450.124 295.496,455.724 "/>
      <polyline fill="#0000ff" fill-opacity="1.00" stroke="#0000ff" stroke-width="0.5pt" stroke-opacity="1.00" stroke-dasharray="none" points="316.852,473.792 322.452,468.192 "/>
      <polyline fill="#0000ff" fill-opacity="1.00" stroke="#0000ff" stroke-width="0.5pt" stroke-opacity="1.00" stroke-dasharray="none" points="316.852,468.192 322.452,473.792 "/>
      <polyline fill="#0000ff" fill-opacity="1.00" stroke="#0000ff" stroke-width="0.5pt" stroke-opacity="1.00" stroke-dasharray="none" points="343.809,477.559 349.409,471.959 "/>
      <polyline fill="#0000ff" fill-opacity="1.00" stroke="#0000ff" stroke-width="0.5pt" stroke-opacity="1.00" stroke-dasharray="none" points="343.809,471.959 349.409,477.559 "/>
      <polyline fill="#0000ff" fill-opacity="1.00" stroke="#0000ff" stroke-width="0.5pt" stroke-opacity="1.00" stroke-dasharray="none" points="370.765,460.378 376.365,454.778 "/>
      <polyline fill="#0000ff" fill-opacity="1.00" stroke="#0000ff" stroke-width="0.5pt" stroke-opacity="1.00" stroke-dasharray="none" points="370.765,454.778 376.365,460.378 "/>
      <polyline fill="#0000ff" fill-opacity="1.00" stroke="#0000ff" stroke-width="0.5pt" stroke-opacity="1.00" stroke-dasharray="none" points="397.722,482.058 403.322,476.458 "/>
      <polyline fill="#0000ff" fill-opacity="1.00" stroke="#0000ff" stroke-width="0.5pt" stroke-opacity="1.00" stroke-dasharray="none" points="397.722,476.458 403.322,482.058 "/>
      <polyline fill="#0000ff" fill-opacity="1.00" stroke="#0000ff" stroke-width="0.5pt" stroke-opacity="1.00" stroke-dasharray="none" points="424.678,463.327 430.278,457.727 "/>
      <polyline fill="#0000ff" fill-opacity="1.00" stroke="#0000ff" stroke-width="0.5pt" stroke-opacity="1.00" stroke-dasharray="none" points="424.678,457.727 430.278,463.327 "/>
      <polyline fill="#0000ff" fill-opacity="1.00" stroke="#0000ff" stroke-width="0.5pt" stroke-opacity="1.00" stroke-dasharray="none" points="451.635,463.562 457.235,457.962 "/>
      <polyline fill="#0000ff" fill-opacity="1.00" stroke="#0000ff" stroke-width="0.5pt" stroke-opacity="1.00" stroke-dasharray="none" points="451.635,457.962 457.235,463.562 "/>
      <polyline fill="#0000ff" fill-opacity="1.00" stroke="#0000ff" stroke-width="0.5pt" stroke-opacity="1.00" stroke-dasharray="none" points="478.591,450.066 484.191,444.466 "/>
      <polyline fill="#0000ff" fill-opacity="1.00" stroke="#0000ff" stroke-width="0.5pt" stroke-opacity="1.00" stroke-dasharray="none" points="478.591,444.466 484.191,450.066 "/>
      <polyline fill="#0000ff" fill-opacity="1.00" stroke="#0000ff" stroke-width="0.5pt" stroke-opacity="1.00" stroke-dasharray="none" points="505.548,471.482 511.148,465.882 "/>
      <polyline fill="#0000ff" fill-opacity="1.00" stroke="#0000ff" stroke-width="0.5pt" stroke-opacity="1.00" stroke-dasharray="none" points="505.548,465.882 511.148,471.482 "/>
      <polyline fill="#0000ff" fill-opacity="1.00" stroke="#0000ff" stroke-width="0.5pt" stroke-opacity="1.00" stroke-dasharray="none" points="532.504,420.380 538.104,414.780 "/>
      <polyline fill="#0000ff" fill-opacity="1.00" stroke="#0000ff" stroke-width="0.5pt" stroke-opacity="1.00" stroke-dasharray="none" points="532.504,414.780 538.104,420.380 "/>
      <polyline fill="#0000ff" fill-opacity="1.00" stroke="#0000ff" stroke-width="0.5pt" stroke-opacity="1.00" stroke-dasharray="none" points="559.461,379.679 565.061,374.079 "/>
      <polyline fill="#0000ff" fill-opacity="1.00" stroke="#0000ff" stroke-width="0.5pt" stroke-opacity="1.00" stroke-dasharray="none" points="559.461,374.079 565.061,379.679 "/>
</g>
</g>
<g id="ID000004" clip-path="url(#ID000001)" >
      <polygon fill="#ff0000" fill-opacity="0.20" stroke="none" stroke-width="0.5pt" stroke-opacity="1.00" stroke-dasharray="none" points="130.957,452.929 157.913,513.923 184.870,488.950 211.826,480.979 238.783,478.345 265.739,453.816 292.696,470.595 319.652,467.089 346.609,453.580 373.565,520.204 400.522,455.759 427.478,419.217 454.435,465.220 481.391,468.379 508.348,460.515 535.304,459.671 562.261,471.852 589.217,497.133 616.174,504.312 643.130,491.847 670.087,484.490 697.043,473.355 697.043,229.990 670.087,267.413 643.130,249.329 616.174,251.723 589.217,254.260 562.261,216.065 535.304,227.192 508.348,203.988 481.391,159.945 454.435,211.156 427.478,170.791 400.522,213.737 373.565,121.218 346.609,202.443 319.652,232.341 292.696,224.126 265.739,221.298 238.783,248.727 211.826,234.387 184.870,178.154 157.913,253.003 130.957,177.137 "/>
</g>
<g id="ID000005" clip-path="url(#ID000001)" >
      <polyline fill="none" stroke="#ff0000" stroke-width="0.5pt" stroke-dasharray="none" points="130.957,315.033 157.913,383.463 184.870,333.552 211.826,357.683 238.783,363.536 265.739,337.557 292.696,347.361 319.652,349.715 346.609,328.011 373.565,320.711 400.522,334.748 427.478,295.004 454.435,338.188 481.391,314.162 508.348,332.252 535.304,343.432 562.261,343.958 589.217,375.696 616.174,378.018 643.130,370.588 670.087,375.952 697.043,351.672 "/>
<g>
      <polyline fill="#ff0000" fill-opacity="1.00" stroke="#ff0000" stroke-width="0.5pt" stroke-opacity="1.00" stroke-dasharray="none" points="128.157,317.833 133.757,312.233 "/>
      <polyline fill="#ff0000" fill-opacity="1.00" stroke="#ff0000" stroke-width="0.5pt" stroke-opacity="1.00" stroke-dasharray="none" points="128.157,312.233 133.757,317.833 "/>
      <polyline fill="#ff0000" fill-opacity="1.00" stroke="#ff0000" stroke-width="0.5pt" stroke-opacity="1.00" stroke-dasharray="none" points="155.113,386.263 160.713,380.663 "/>
      <polyline fill="#ff0000" fill-opacity="1.00" stroke="#ff0000" stroke-width="0.5pt" stroke-opacity="1.00" stroke-dasharray="none" points="155.113,380.663 160.713,386.263 "/>
      <polyline fill="#ff0000" fill-opacity="1.00" stroke="#ff0000" stroke-width="0.5pt" stroke-opacity="1.00" stroke-dasharray="none" points="182.070,336.352 187.670,330.752 "/>
      <polyline fill="#ff0000" fill-opacity="1.00" stroke="#ff0000" stroke-width="0.5pt" stroke-opacity="1.00" stroke-dasharray="none" points="182.070,330.752 187.670,336.352 "/>
      <polyline fill="#ff0000" fill-opacity="1.00" stroke="#ff0000" stroke-width="0.5pt" stroke-opacity="1.00" stroke-dasharray="none" points="209.026,360.483 214.626,354.883 "/>
      <polyline fill="#ff0000" fill-opacity="1.00" stroke="#ff0000" stroke-width="0.5pt" stroke-opacity="1.00" stroke-dasharray="none" points="209.026,354.883 214.626,360.483 "/>
      <polyline fill="#ff0000" fill-opacity="1.00" stroke="#ff0000" stroke-width="0.5pt" stroke-opacity="1.00" stroke-dasharray="none" points="235.983,366.336 241.583,360.736 "/>
      <polyline fill="#ff0000" fill-opacity="1.00" stroke="#ff0000" stroke-width="0.5pt" stroke-opacity="1.00" stroke-dasharray="none" points="235.983,360.736 241.583,366.336 "/>
      <polyline fill="#ff0000" fill-opacity="1.00" stroke="#ff0000" stroke-width="0.5pt" stroke-opacity="1.00" stroke-dasharray="none" points="262.939,340.357 268.539,334.757 "/>
      <polyline fill="#ff0000" fill-opacity="1.00" stroke="#ff0000" stroke-width="0.5pt" stroke-opacity="1.00" stroke-dasharray="none" points="262.939,334.757 268.539,340.357 "/>
      <polyline fill="#ff0000" fill-opacity="1.00" stroke="#ff0000" stroke-width="0.5pt" stroke-opacity="1.00" stroke-dasharray="none" points="289.896,350.161 295.496,344.561 "/>
      <polyline fill="#ff0000" fill-opacity="1.00" stroke="#ff0000" stroke-width="0.5pt" stroke-opacity="1.00" stroke-dasharray="none" points="289.896,344.561 295.496,350.161 "/>
      <polyline fill="#ff0000" fill-opacity="1.00" stroke="#ff0000" stroke-width="0.5pt" stroke-opacity="1.00" stroke-dasharray="none" points="316.852,352.515 322.452,346.915 "/>
      <polyline fill="#ff0000" fill-opacity="1.00" stroke="#ff0000" stroke-width="0.5pt" stroke-opacity="1.00" stroke-dasharray="none" points="316.852,346.915 322.452,352.515 "/>
      <polyline fill="#ff0000" fill-opacity="1.00" stroke="#ff0000" stroke-width="0.5pt" stroke-opacity="1.00" stroke-dasharray="none" points="343.809,330.811 349.409,325.211 "/>
      <polyline fill="#ff0000" fill-opacity="1.00" stroke="#ff0000" stroke-width="0.5pt" stroke-opacity="1.00" stroke-dasharray="none" points="343.809,325.211 349.409,330.811 "/>
      <polyline fill="#ff0000" fill-opacity="1.00" stroke="#ff0000" stroke-width="0.5pt" stroke-opacity="1.00" stroke-dasharray="none" points="370.765,323.511 376.365,317.911 "/>
      <polyline fill="#ff0000" fill-opacity="1.00" stroke="#ff0000" stroke-width="0.5pt" stroke-opacity="1.00" stroke-dasharray="none" points="370.765,317.911 376.365,323.511 "/>
      <polyline fill="#ff0000" fill-opacity="1.00" stroke="#ff0000" stroke-width="0.5pt" stroke-opacity="1.00" stroke-dasharray="none" points="397.722,337.548 403.322,331.948 "/>
      <polyline fill="#ff0000" fill-opacity="1.00" stroke="#ff0000" stroke-width="0.5pt" stroke-opacity="1.00" stroke-dasharray="none" points="397.722,331.948 403.322,337.548 "/>
      <polyline fill="#ff0000" fill-opacity="1.00" stroke="#ff0000" stroke-width="0.5pt" stroke-opacity="1.00" stroke-dasharray="none" points="424.678,297.804 430.278,292.204 "/>
      <polyline fill="#ff0000" fill-opacity="1.00" stroke="#ff0000" stroke-width="0.5pt" stroke-opacity="1.00" stroke-dasharray="none" points="424.678,292.204 430.278,297.804 "/>
      <polyline fill="#ff0000" fill-opacity="1.00" stroke="#ff0000" stroke-width="0.5pt" stroke-opacity="1.00" stroke-dasharray="none" points="451.635,340.988 457.235,335.388 "/>
      <polyline fill="#ff0000" fill-opacity="1.00" stroke="#ff0000" stroke-width="0.5pt" stroke-opacity="1.00" stroke-dasharray="none" points="451.635,335.388 457.235,340.988 "/>
      <polyline fill="#ff0000" fill-opacity="1.00" stroke="#ff0000" stroke-width="0.5pt" stroke-opacity="1.00" stroke-dasharray="none" points="478.591,316.962 484.191,311.362 "/>
      <polyline fill="#ff0000" fill-opacity="1.00" stroke="#ff0000" stroke-width="0.5pt" stroke-opacity="1.00" stroke-dasharray="none" points="478.591,311.362 484.191,316.962 "/>
      <polyline fill="#ff0000" fill-opacity="1.00" stroke="#ff0000" stroke-width="0.5pt" stroke-opacity="1.00" stroke-dasharray="none" points="505.548,335.052 511.148,329.452 "/>
      <polyline fill="#ff0000" fill-opacity="1.00" stroke="#ff0000" stroke-width="0.5pt" stroke-opacity="1.00" stroke-dasharray="none" points="505.548,329.452 511.148,335.052 "/>
      <polyline fill="#ff0000" fill-opacity="1.00" stroke="#ff0000" stroke-width="0.5pt" stroke-opacity="1.00" stroke-dasharray="none" points="532.504,346.232 538.104,340.632 "/>
      <polyline fill="#ff0000" fill-opacity="1.00" stroke="#ff0000" stroke-width="0.5pt" stroke-opacity="1.00" stroke-dasharray="none" points="532.504,340.632 538.104,346.232 "/>
      <polyline fill="#ff0000" fill-opacity="1.00" stroke="#ff0000" stroke-width="0.5pt" stroke-opacity="1.00" stroke-dasharray="none" points="559.461,346.758 565.061,341.158 "/>
      <polyline fill="#ff0000" fill-opacity="1.00" stroke="#ff0000" stroke-width="0.5pt" stroke-opacity="1.00" stroke-dasharray="none" points="559.461,341.158 565.061,346.758 "/>
      <polyline fill="#ff0000" fill-opacity="1.00" stroke="#ff0000" stroke-width="0.5pt" stroke-opacity="1.00" stroke-dasharray="none" points="586.417,378.496 592.017,372.896 "/>
      <polyline fill="#ff0000" fill-opacity="1.00" stroke="#ff0000" stroke-width="0.5pt" stroke-opacity="1.00" stroke-dasharray="none" points="586.417,372.896 592.017,378.496 "/>
      <polyline fill="#ff0000" fill-opacity="1.00" stroke="#ff0000" stroke-width="0.5pt" stroke-opacity="1.00" stroke-dasharray="none" points="613.374,380.818 618.974,375.218 "/>
      <polyline fill="#ff0000" fill-opacity="1.00" stroke="#ff0000" stroke-width="0.5pt" stroke-opacity="1.00" stroke-dasharray="none" points="613.374,375.218 618.974,380.818 "/>
      <polyline fill="#ff0000" fill-opacity="1.00" stroke="#ff0000" stroke-width="0.5pt" stroke-opacity="1.00" stroke-dasharray="none" points="640.330,373.388 645.930,367.788 "/>
      <polyline fill="#ff0000" fill-opacity="1.00" stroke="#ff0000" stroke-width="0.5pt" stroke-opacity="1.00" stroke-dasharray="none" points="640.330,367.788 645.930,373.388 "/>
      <polyline fill="#ff0000" fill-opacity="1.00" stroke="#ff0000" stroke-width="0.5pt" stroke-opacity="1.00" stroke-dasharray="none" points="667.287,378.752 672.887,373.152 "/>
      <polyline fill="#ff0000" fill-opacity="1.00" stroke="#ff0000" stroke-width="0.5pt" stroke-opacity="1.00" stroke-dasharray="none" points="667.287,373.152 672.887,378.752 "/>
      <polyline fill="#ff0000" fill-opacity="1.00" stroke="#ff0000" stroke-width="0.5pt" stroke-opacity="1.00" stroke-dasharray="none" points="694.243,354.472 699.843,348.872 "/>
      <polyline fill="#ff0000" fill-opacity="1.00" stroke="#ff0000" stroke-width="0.5pt" stroke-opacity="1.00" stroke-dasharray="none" points="694.243,348.872 699.843,354.472 "/>
</g>
</g>
<g id="ID000006" >
  <g transform="translate(412.500,767.111)">
    <g transform="rotate(-0.0)">
      <text x="0.000" y="0.000" font-family="Helvetica" text-anchor="middle" font-size="17pt" fill="#000000" >Number of training sessions</text>
    </g>
  </g>
</g>
<g id="ID000007" >
  <g transform="translate(61.250,383.248)">
    <g transform="rotate(-90.0)">
      <text x="0.000" y="0.000" font-family="Helvetica" text-anchor="middle" font-size="17pt" fill="#000000" >Pearson r coeff</text>
    </g>
  </g>
</g>
<g id="ID000008" >
  <g transform="translate(412.500,47.756)">
    <g transform="rotate(-0.0)">
      <text x="0.000" y="0.000" font-family="Helvetica" text-anchor="middle" font-size="19pt" fill="#000000" >V1: Mean over pairs and conditions</text>
    </g>
  </g>
</g>
<g id="ID000009" >
  <g transform="translate(133.955,717.446)">
    <g transform="rotate(-45.0)">
      <text x="0.000" y="0.000" font-family="Helvetica" text-anchor="end" font-size="14pt" fill="#000000" >1</text>
    </g>
  </g>
</g>
<g id="ID000010" >
  <g transform="translate(160.955,717.446)">
    <g transform="rotate(-45.0)">
      <text x="0.000" y="0.000" font-family="Helvetica" text-anchor="end" font-size="14pt" fill="#000000" >2</text>
    </g>
  </g>
</g>
<g id="ID000011" >
  <g transform="translate(187.955,717.446)">
    <g transform="rotate(-45.0)">
      <text x="0.000" y="0.000" font-family="Helvetica" text-anchor="end" font-size="14pt" fill="#000000" >3</text>
    </g>
  </g>
</g>
<g id="ID000012" >
  <g transform="translate(214.955,717.446)">
    <g transform="rotate(-45.0)">
      <text x="0.000" y="0.000" font-family="Helvetica" text-anchor="end" font-size="14pt" fill="#000000" >4</text>
    </g>
  </g>
</g>
<g id="ID000013" >
  <g transform="translate(241.955,717.446)">
    <g transform="rotate(-45.0)">
      <text x="0.000" y="0.000" font-family="Helvetica" text-anchor="end" font-size="14pt" fill="#000000" >5</text>
    </g>
  </g>
</g>
<g id="ID000014" >
  <g transform="translate(268.955,717.446)">
    <g transform="rotate(-45.0)">
      <text x="0.000" y="0.000" font-family="Helvetica" text-anchor="end" font-size="14pt" fill="#000000" >6</text>
    </g>
  </g>
</g>
<g id="ID000015" >
  <g transform="translate(295.955,717.446)">
    <g transform="rotate(-45.0)">
      <text x="0.000" y="0.000" font-family="Helvetica" text-anchor="end" font-size="14pt" fill="#000000" >7</text>
    </g>
  </g>
</g>
<g id="ID000016" >
  <g transform="translate(322.955,717.446)">
    <g transform="rotate(-45.0)">
      <text x="0.000" y="0.000" font-family="Helvetica" text-anchor="end" font-size="14pt" fill="#000000" >8</text>
    </g>
  </g>
</g>
<g id="ID000017" >
  <g transform="translate(349.955,717.446)">
    <g transform="rotate(-45.0)">
      <text x="0.000" y="0.000" font-family="Helvetica" text-anchor="end" font-size="14pt" fill="#000000" >9</text>
    </g>
  </g>
</g>
<g id="ID000018" >
  <g transform="translate(376.955,717.446)">
    <g transform="rotate(-45.0)">
      <text x="0.000" y="0.000" font-family="Helvetica" text-anchor="end" font-size="14pt" fill="#000000" >10</text>
    </g>
  </g>
</g>
<g id="ID000019" >
  <g transform="translate(403.955,717.446)">
    <g transform="rotate(-45.0)">
      <text x="0.000" y="0.000" font-family="Helvetica" text-anchor="end" font-size="14pt" fill="#000000" >11</text>
    </g>
  </g>
</g>
<g id="ID000020" >
  <g transform="translate(430.955,717.446)">
    <g transform="rotate(-45.0)">
      <text x="0.000" y="0.000" font-family="Helvetica" text-anchor="end" font-size="14pt" fill="#000000" >12</text>
    </g>
  </g>
</g>
<g id="ID000021" >
  <g transform="translate(457.955,717.446)">
    <g transform="rotate(-45.0)">
      <text x="0.000" y="0.000" font-family="Helvetica" text-anchor="end" font-size="14pt" fill="#000000" >13</text>
    </g>
  </g>
</g>
<g id="ID000022" >
  <g transform="translate(484.955,717.446)">
    <g transform="rotate(-45.0)">
      <text x="0.000" y="0.000" font-family="Helvetica" text-anchor="end" font-size="14pt" fill="#000000" >14</text>
    </g>
  </g>
</g>
<g id="ID000023" >
  <g transform="translate(511.955,717.446)">
    <g transform="rotate(-45.0)">
      <text x="0.000" y="0.000" font-family="Helvetica" text-anchor="end" font-size="14pt" fill="#000000" >15</text>
    </g>
  </g>
</g>
<g id="ID000024" >
  <g transform="translate(538.955,717.446)">
    <g transform="rotate(-45.0)">
      <text x="0.000" y="0.000" font-family="Helvetica" text-anchor="end" font-size="14pt" fill="#000000" >16</text>
    </g>
  </g>
</g>
<g id="ID000025" >
  <g transform="translate(565.955,717.446)">
    <g transform="rotate(-45.0)">
      <text x="0.000" y="0.000" font-family="Helvetica" text-anchor="end" font-size="14pt" fill="#000000" >17</text>
    </g>
  </g>
</g>
<g id="ID000026" >
  <g transform="translate(592.955,717.446)">
    <g transform="rotate(-45.0)">
      <text x="0.000" y="0.000" font-family="Helvetica" text-anchor="end" font-size="14pt" fill="#000000" >18</text>
    </g>
  </g>
</g>
<g id="ID000027" >
  <g transform="translate(619.955,717.446)">
    <g transform="rotate(-45.0)">
      <text x="0.000" y="0.000" font-family="Helvetica" text-anchor="end" font-size="14pt" fill="#000000" >19</text>
    </g>
  </g>
</g>
<g id="ID000028" >
  <g transform="translate(646.955,717.446)">
    <g transform="rotate(-45.0)">
      <text x="0.000" y="0.000" font-family="Helvetica" text-anchor="end" font-size="14pt" fill="#000000" >20</text>
    </g>
  </g>
</g>
<g id="ID000029" >
  <g transform="translate(673.955,717.446)">
    <g transform="rotate(-45.0)">
      <text x="0.000" y="0.000" font-family="Helvetica" text-anchor="end" font-size="14pt" fill="#000000" >21</text>
    </g>
  </g>
</g>
<g id="ID000030" >
  <g transform="translate(700.955,717.446)">
    <g transform="rotate(-45.0)">
      <text x="0.000" y="0.000" font-family="Helvetica" text-anchor="end" font-size="14pt" fill="#000000" >22</text>
    </g>
  </g>
</g>
    </g>
    <g>
      <polyline fill="none" stroke="#000000" stroke-width="0.5pt" stroke-dasharray="none" points="130.957,701.500 130.957,695.085 "/>
      <polyline fill="none" stroke="#000000" stroke-width="0.5pt" stroke-dasharray="none" points="157.913,701.500 157.913,695.085 "/>
      <polyline fill="none" stroke="#000000" stroke-width="0.5pt" stroke-dasharray="none" points="184.870,701.500 184.870,695.085 "/>
      <polyline fill="none" stroke="#000000" stroke-width="0.5pt" stroke-dasharray="none" points="211.826,701.500 211.826,695.085 "/>
      <polyline fill="none" stroke="#000000" stroke-width="0.5pt" stroke-dasharray="none" points="238.783,701.500 238.783,695.085 "/>
      <polyline fill="none" stroke="#000000" stroke-width="0.5pt" stroke-dasharray="none" points="265.739,701.500 265.739,695.085 "/>
      <polyline fill="none" stroke="#000000" stroke-width="0.5pt" stroke-dasharray="none" points="292.696,701.500 292.696,695.085 "/>
      <polyline fill="none" stroke="#000000" stroke-width="0.5pt" stroke-dasharray="none" points="319.652,701.500 319.652,695.085 "/>
      <polyline fill="none" stroke="#000000" stroke-width="0.5pt" stroke-dasharray="none" points="346.609,701.500 346.609,695.085 "/>
      <polyline fill="none" stroke="#000000" stroke-width="0.5pt" stroke-dasharray="none" points="373.565,701.500 373.565,695.085 "/>
      <polyline fill="none" stroke="#000000" stroke-width="0.5pt" stroke-dasharray="none" points="400.522,701.500 400.522,695.085 "/>
      <polyline fill="none" stroke="#000000" stroke-width="0.5pt" stroke-dasharray="none" points="427.478,701.500 427.478,695.085 "/>
      <polyline fill="none" stroke="#000000" stroke-width="0.5pt" stroke-dasharray="none" points="454.435,701.500 454.435,695.085 "/>
      <polyline fill="none" stroke="#000000" stroke-width="0.5pt" stroke-dasharray="none" points="481.391,701.500 481.391,695.085 "/>
      <polyline fill="none" stroke="#000000" stroke-width="0.5pt" stroke-dasharray="none" points="508.348,701.500 508.348,695.085 "/>
      <polyline fill="none" stroke="#000000" stroke-width="0.5pt" stroke-dasharray="none" points="535.304,701.500 535.304,695.085 "/>
      <polyline fill="none" stroke="#000000" stroke-width="0.5pt" stroke-dasharray="none" points="562.261,701.500 562.261,695.085 "/>
      <polyline fill="none" stroke="#000000" stroke-width="0.5pt" stroke-dasharray="none" points="589.217,701.500 589.217,695.085 "/>
      <polyline fill="none" stroke="#000000" stroke-width="0.5pt" stroke-dasharray="none" points="616.174,701.500 616.174,695.085 "/>
      <polyline fill="none" stroke="#000000" stroke-width="0.5pt" stroke-dasharray="none" points="643.130,701.500 643.130,695.085 "/>
      <polyline fill="none" stroke="#000000" stroke-width="0.5pt" stroke-dasharray="none" points="670.087,701.500 670.087,695.085 "/>
      <polyline fill="none" stroke="#000000" stroke-width="0.5pt" stroke-dasharray="none" points="697.043,701.500 697.043,695.085 "/>
      <polyline fill="none" stroke="#000000" stroke-width="0.5pt" stroke-dasharray="none" points="104.000,701.500 724.000,701.500 "/>
      <polyline fill="none" stroke="#000000" stroke-width="0.5pt" stroke-dasharray="none" points="130.957,60.000 130.957,66.415 "/>
      <polyline fill="none" stroke="#000000" stroke-width="0.5pt" stroke-dasharray="none" points="157.913,60.000 157.913,66.415 "/>
      <polyline fill="none" stroke="#000000" stroke-width="0.5pt" stroke-dasharray="none" points="184.870,60.000 184.870,66.415 "/>
      <polyline fill="none" stroke="#000000" stroke-width="0.5pt" stroke-dasharray="none" points="211.826,60.000 211.826,66.415 "/>
      <polyline fill="none" stroke="#000000" stroke-width="0.5pt" stroke-dasharray="none" points="238.783,60.000 238.783,66.415 "/>
      <polyline fill="none" stroke="#000000" stroke-width="0.5pt" stroke-dasharray="none" points="265.739,60.000 265.739,66.415 "/>
      <polyline fill="none" stroke="#000000" stroke-width="0.5pt" stroke-dasharray="none" points="292.696,60.000 292.696,66.415 "/>
      <polyline fill="none" stroke="#000000" stroke-width="0.5pt" stroke-dasharray="none" points="319.652,60.000 319.652,66.415 "/>
      <polyline fill="none" stroke="#000000" stroke-width="0.5pt" stroke-dasharray="none" points="346.609,60.000 346.609,66.415 "/>
      <polyline fill="none" stroke="#000000" stroke-width="0.5pt" stroke-dasharray="none" points="373.565,60.000 373.565,66.415 "/>
      <polyline fill="none" stroke="#000000" stroke-width="0.5pt" stroke-dasharray="none" points="400.522,60.000 400.522,66.415 "/>
      <polyline fill="none" stroke="#000000" stroke-width="0.5pt" stroke-dasharray="none" points="427.478,60.000 427.478,66.415 "/>
      <polyline fill="none" stroke="#000000" stroke-width="0.5pt" stroke-dasharray="none" points="454.435,60.000 454.435,66.415 "/>
      <polyline fill="none" stroke="#000000" stroke-width="0.5pt" stroke-dasharray="none" points="481.391,60.000 481.391,66.415 "/>
      <polyline fill="none" stroke="#000000" stroke-width="0.5pt" stroke-dasharray="none" points="508.348,60.000 508.348,66.415 "/>
      <polyline fill="none" stroke="#000000" stroke-width="0.5pt" stroke-dasharray="none" points="535.304,60.000 535.304,66.415 "/>
      <polyline fill="none" stroke="#000000" stroke-width="0.5pt" stroke-dasharray="none" points="562.261,60.000 562.261,66.415 "/>
      <polyline fill="none" stroke="#000000" stroke-width="0.5pt" stroke-dasharray="none" points="589.217,60.000 589.217,66.415 "/>
      <polyline fill="none" stroke="#000000" stroke-width="0.5pt" stroke-dasharray="none" points="616.174,60.000 616.174,66.415 "/>
      <polyline fill="none" stroke="#000000" stroke-width="0.5pt" stroke-dasharray="none" points="643.130,60.000 643.130,66.415 "/>
      <polyline fill="none" stroke="#000000" stroke-width="0.5pt" stroke-dasharray="none" points="670.087,60.000 670.087,66.415 "/>
      <polyline fill="none" stroke="#000000" stroke-width="0.5pt" stroke-dasharray="none" points="697.043,60.000 697.043,66.415 "/>
      <polyline fill="none" stroke="#000000" stroke-width="0.5pt" stroke-dasharray="none" points="104.000,60.000 724.000,60.000 "/>
      <polyline fill="none" stroke="#000000" stroke-width="0.5pt" stroke-dasharray="none" points="104.000,609.857 110.415,609.857 "/>
      <polyline fill="none" stroke="#000000" stroke-width="0.5pt" stroke-dasharray="none" points="104.000,518.214 110.415,518.214 "/>
      <polyline fill="none" stroke="#000000" stroke-width="0.5pt" stroke-dasharray="none" points="104.000,426.571 110.415,426.571 "/>
      <polyline fill="none" stroke="#000000" stroke-width="0.5pt" stroke-dasharray="none" points="104.000,334.929 110.415,334.929 "/>
      <polyline fill="none" stroke="#000000" stroke-width="0.5pt" stroke-dasharray="none" points="104.000,243.286 110.415,243.286 "/>
      <polyline fill="none" stroke="#000000" stroke-width="0.5pt" stroke-dasharray="none" points="104.000,151.643 110.415,151.643 "/>
      <polyline fill="none" stroke="#000000" stroke-width="0.5pt" stroke-dasharray="none" points="104.000,701.500 104.000,60.000 "/>
      <polyline fill="none" stroke="#000000" stroke-width="0.5pt" stroke-dasharray="none" points="724.000,609.857 717.585,609.857 "/>
      <polyline fill="none" stroke="#000000" stroke-width="0.5pt" stroke-dasharray="none" points="724.000,518.214 717.585,518.214 "/>
      <polyline fill="none" stroke="#000000" stroke-width="0.5pt" stroke-dasharray="none" points="724.000,426.571 717.585,426.571 "/>
      <polyline fill="none" stroke="#000000" stroke-width="0.5pt" stroke-dasharray="none" points="724.000,334.929 717.585,334.929 "/>
      <polyline fill="none" stroke="#000000" stroke-width="0.5pt" stroke-dasharray="none" points="724.000,243.286 717.585,243.286 "/>
      <polyline fill="none" stroke="#000000" stroke-width="0.5pt" stroke-dasharray="none" points="724.000,151.643 717.585,151.643 "/>
      <polyline fill="none" stroke="#000000" stroke-width="0.5pt" stroke-dasharray="none" points="724.000,701.500 724.000,60.000 "/>
  <g transform="translate(91.600,707.800)">
    <g transform="rotate(-0.0)">
      <text x="0.000" y="0.000" font-family="Helvetica" text-anchor="end" font-size="14pt" fill="#000000" >-0.2</text>
    </g>
  </g>
  <g transform="translate(91.600,616.157)">
    <g transform="rotate(-0.0)">
      <text x="0.000" y="0.000" font-family="Helvetica" text-anchor="end" font-size="14pt" fill="#000000" >-0.1</text>
    </g>
  </g>
  <g transform="translate(91.600,524.514)">
    <g transform="rotate(-0.0)">
      <text x="0.000" y="0.000" font-family="Helvetica" text-anchor="end" font-size="14pt" fill="#000000" >0</text>
    </g>
  </g>
  <g transform="translate(91.600,432.871)">
    <g transform="rotate(-0.0)">
      <text x="0.000" y="0.000" font-family="Helvetica" text-anchor="end" font-size="14pt" fill="#000000" >0.1</text>
    </g>
  </g>
  <g transform="translate(91.600,341.229)">
    <g transform="rotate(-0.0)">
      <text x="0.000" y="0.000" font-family="Helvetica" text-anchor="end" font-size="14pt" fill="#000000" >0.2</text>
    </g>
  </g>
  <g transform="translate(91.600,249.586)">
    <g transform="rotate(-0.0)">
      <text x="0.000" y="0.000" font-family="Helvetica" text-anchor="end" font-size="14pt" fill="#000000" >0.3</text>
    </g>
  </g>
  <g transform="translate(91.600,157.943)">
    <g transform="rotate(-0.0)">
      <text x="0.000" y="0.000" font-family="Helvetica" text-anchor="end" font-size="14pt" fill="#000000" >0.4</text>
    </g>
  </g>
  <g transform="translate(91.600,66.300)">
    <g transform="rotate(-0.0)">
      <text x="0.000" y="0.000" font-family="Helvetica" text-anchor="end" font-size="14pt" fill="#000000" >0.5</text>
    </g>
  </g>
      <polyline fill="none" stroke="#000000" stroke-width="0.5pt" stroke-dasharray="none" points="104.000,701.500 104.000,695.085 "/>
      <polyline fill="none" stroke="#000000" stroke-width="0.5pt" stroke-dasharray="none" points="104.000,701.500 104.000,701.500 "/>
    </g>
  </g>
  </g>
</svg>
