<?xml version="1.0" encoding="UTF-8" standalone="no"?>
<svg
   xmlns:dc="http://purl.org/dc/elements/1.1/"
   xmlns:cc="http://creativecommons.org/ns#"
   xmlns:rdf="http://www.w3.org/1999/02/22-rdf-syntax-ns#"
   xmlns:svg="http://www.w3.org/2000/svg"
   xmlns="http://www.w3.org/2000/svg"
   version="1.1"
   id="svg2"
   viewBox="0 0 1052.3622 744.09448"
   height="210mm"
   width="297mm">
  <defs
     id="defs4">
    <clipPath
       clipPathUnits="userSpaceOnUse"
       id="clipPath4150">
      <path
         d="M 0,0 720,0 720,540 0,540 0,0 Z"
         id="path4152"
         style="clip-rule:evenodd" />
    </clipPath>
  </defs>
  <metadata
     id="metadata7">
    <rdf:RDF>
      <cc:Work
         rdf:about="">
        <dc:format>image/svg+xml</dc:format>
        <dc:type
           rdf:resource="http://purl.org/dc/dcmitype/StillImage" />
        <dc:title></dc:title>
      </cc:Work>
    </rdf:RDF>
  </metadata>
  <g
     transform="translate(0,-308.26772)"
     id="layer1">
    <g
       id="g4144"
       transform="matrix(1.25,0,0,-1.25,106.24806,983.67706)">
      <g
         id="g4146">
        <g
           id="g4148"
           clip-path="url(#clipPath4150)">
          <path
             d="m 347.5,437.8 c -6.1,0 -12.2,-6.1 -12.2,-12.2 l 0,-48.8 c 0,-6.1 6.1,-12.2 12.2,-12.2 l 65.6,0 c 6.1,0 12.3,6.1 12.3,12.2 l 0,48.8 c 0,6.1 -6.2,12.2 -12.3,12.2 l -65.6,0 z m -12.2,0 0,0 z m 90.1,-73.2 0,0 z"
             style="fill:#e6e6e6;fill-opacity:1;fill-rule:evenodd;stroke:none"
             id="path4154" />
          <g
             id="g4156">
            <path
               d="m 347.5,437.8 c -6.1,0 -12.2,-6.1 -12.2,-12.2 l 0,-48.8 c 0,-6.1 6.1,-12.2 12.2,-12.2 l 65.6,0 c 6.1,0 12.3,6.1 12.3,12.2 l 0,48.8 c 0,6.1 -6.2,12.2 -12.3,12.2 l -65.6,0 z"
               style="fill:none;stroke:#b3b3b3;stroke-width:1.49989998;stroke-linecap:square;stroke-linejoin:miter;stroke-miterlimit:7.66129017;stroke-dasharray:none;stroke-opacity:1"
               id="path4158" />
          </g>
          <g
             id="g4160">
            <path
               d="m 335.3,437.8 0,0 z"
               style="fill:none;stroke:#b3b3b3;stroke-width:1.49989998;stroke-linecap:square;stroke-linejoin:miter;stroke-miterlimit:7.66129017;stroke-dasharray:none;stroke-opacity:1"
               id="path4162" />
          </g>
          <g
             id="g4164">
            <path
               d="m 425.4,364.6 0,0 z"
               style="fill:none;stroke:#b3b3b3;stroke-width:1.49989998;stroke-linecap:square;stroke-linejoin:miter;stroke-miterlimit:7.66129017;stroke-dasharray:none;stroke-opacity:1"
               id="path4166" />
          </g>
          <path
             d="m 516.3,438.5 c -6.1,0 -12.2,-6.1 -12.2,-12.2 l 0,-48.7 c 0,-6.1 6.1,-12.2 12.2,-12.2 l 65.6,0 c 6.1,0 12.2,6.1 12.2,12.2 l 0,48.7 c 0,6.1 -6.1,12.2 -12.2,12.2 l -65.6,0 z m -12.2,0 0,0 z m 90,-73.1 0,0 z"
             style="fill:#e6e6e6;fill-opacity:1;fill-rule:evenodd;stroke:none"
             id="path4168" />
          <g
             id="g4170">
            <path
               d="m 516.3,438.5 c -6.1,0 -12.2,-6.1 -12.2,-12.2 l 0,-48.7 c 0,-6.1 6.1,-12.2 12.2,-12.2 l 65.6,0 c 6.1,0 12.2,6.1 12.2,12.2 l 0,48.7 c 0,6.1 -6.1,12.2 -12.2,12.2 l -65.6,0 z"
               style="fill:none;stroke:#b3b3b3;stroke-width:1.49989998;stroke-linecap:square;stroke-linejoin:miter;stroke-miterlimit:7.66129017;stroke-dasharray:none;stroke-opacity:1"
               id="path4172" />
          </g>
          <g
             id="g4174">
            <path
               d="m 504.1,438.5 0,0 z"
               style="fill:none;stroke:#b3b3b3;stroke-width:1.49989998;stroke-linecap:square;stroke-linejoin:miter;stroke-miterlimit:7.66129017;stroke-dasharray:none;stroke-opacity:1"
               id="path4176" />
          </g>
          <g
             id="g4178">
            <path
               d="m 594.1,365.4 0,0 z"
               style="fill:none;stroke:#b3b3b3;stroke-width:1.49989998;stroke-linecap:square;stroke-linejoin:miter;stroke-miterlimit:7.66129017;stroke-dasharray:none;stroke-opacity:1"
               id="path4180" />
          </g>
          <path
             d="m 290.8,395 c -6.1,0 -12.2,-6.1 -12.2,-12.2 l 0,-48.7 c 0,-6.1 6.1,-12.3 12.2,-12.3 l 65.6,0 c 6.1,0 12.2,6.2 12.2,12.3 l 0,48.7 c 0,6.1 -6.1,12.2 -12.2,12.2 l -65.6,0 z m -12.2,0 0,0 z m 90,-73.2 0,0 z"
             style="fill:#e6e6e6;fill-opacity:1;fill-rule:evenodd;stroke:none"
             id="path4182" />
          <g
             id="g4184">
            <path
               d="m 290.8,395 c -6.1,0 -12.2,-6.1 -12.2,-12.2 l 0,-48.7 c 0,-6.1 6.1,-12.3 12.2,-12.3 l 65.6,0 c 6.1,0 12.2,6.2 12.2,12.3 l 0,48.7 c 0,6.1 -6.1,12.2 -12.2,12.2 l -65.6,0 z"
               style="fill:none;stroke:#b3b3b3;stroke-width:1.49989998;stroke-linecap:square;stroke-linejoin:miter;stroke-miterlimit:7.66129017;stroke-dasharray:none;stroke-opacity:1"
               id="path4186" />
          </g>
          <g
             id="g4188">
            <path
               d="m 278.6,395 0,0 z"
               style="fill:none;stroke:#b3b3b3;stroke-width:1.49989998;stroke-linecap:square;stroke-linejoin:miter;stroke-miterlimit:7.66129017;stroke-dasharray:none;stroke-opacity:1"
               id="path4190" />
          </g>
          <g
             id="g4192">
            <path
               d="m 368.6,321.8 0,0 z"
               style="fill:none;stroke:#b3b3b3;stroke-width:1.49989998;stroke-linecap:square;stroke-linejoin:miter;stroke-miterlimit:7.66129017;stroke-dasharray:none;stroke-opacity:1"
               id="path4194" />
          </g>
          <path
             d="m 228.2,350.8 c -6.1,0 -12.2,-6.1 -12.2,-12.2 l 0,-48.8 c 0,-6.1 6.1,-12.2 12.2,-12.2 l 65.6,0 c 6.1,0 12.2,6.1 12.2,12.2 l 0,48.8 c 0,6.1 -6.1,12.2 -12.2,12.2 l -65.6,0 z m -12.2,0 0,0 z m 90,-73.2 0,0 z"
             style="fill:#e6e6e6;fill-opacity:1;fill-rule:evenodd;stroke:none"
             id="path4196" />
          <g
             id="g4198">
            <path
               d="m 228.2,350.8 c -6.1,0 -12.2,-6.1 -12.2,-12.2 l 0,-48.8 c 0,-6.1 6.1,-12.2 12.2,-12.2 l 65.6,0 c 6.1,0 12.2,6.1 12.2,12.2 l 0,48.8 c 0,6.1 -6.1,12.2 -12.2,12.2 l -65.6,0 z"
               style="fill:none;stroke:#b3b3b3;stroke-width:1.49989998;stroke-linecap:square;stroke-linejoin:miter;stroke-miterlimit:7.66129017;stroke-dasharray:none;stroke-opacity:1"
               id="path4200" />
          </g>
          <g
             id="g4202">
            <path
               d="m 216,350.8 0,0 z"
               style="fill:none;stroke:#b3b3b3;stroke-width:1.49989998;stroke-linecap:square;stroke-linejoin:miter;stroke-miterlimit:7.66129017;stroke-dasharray:none;stroke-opacity:1"
               id="path4204" />
          </g>
          <g
             id="g4206">
            <path
               d="m 306,277.6 0,0 z"
               style="fill:none;stroke:#b3b3b3;stroke-width:1.49989998;stroke-linecap:square;stroke-linejoin:miter;stroke-miterlimit:7.66129017;stroke-dasharray:none;stroke-opacity:1"
               id="path4208" />
          </g>
          <path
             d="m 167,305 c -6,0 -12.1,-6.1 -12.1,-12.2 l 0,-48.7 c 0,-6.1 6.1,-12.3 12.1,-12.3 l 65.7,0 c 6.1,0 12.2,6.2 12.2,12.3 l 0,48.7 c 0,6.1 -6.1,12.2 -12.2,12.2 l -65.7,0 z m -12.1,0 0,0 z m 90,-73.2 0,0 z"
             style="fill:#e6e6e6;fill-opacity:1;fill-rule:evenodd;stroke:none"
             id="path4210" />
          <g
             id="g4212">
            <path
               d="m 167,305 c -6,0 -12.1,-6.1 -12.1,-12.2 l 0,-48.7 c 0,-6.1 6.1,-12.3 12.1,-12.3 l 65.7,0 c 6.1,0 12.2,6.2 12.2,12.3 l 0,48.7 c 0,6.1 -6.1,12.2 -12.2,12.2 l -65.7,0 z"
               style="fill:none;stroke:#b3b3b3;stroke-width:1.49989998;stroke-linecap:square;stroke-linejoin:miter;stroke-miterlimit:7.66129017;stroke-dasharray:none;stroke-opacity:1"
               id="path4214" />
          </g>
          <g
             id="g4216">
            <path
               d="m 154.9,305 0,0 z"
               style="fill:none;stroke:#b3b3b3;stroke-width:1.49989998;stroke-linecap:square;stroke-linejoin:miter;stroke-miterlimit:7.66129017;stroke-dasharray:none;stroke-opacity:1"
               id="path4218" />
          </g>
          <g
             id="g4220">
            <path
               d="m 244.9,231.8 0,0 z"
               style="fill:none;stroke:#b3b3b3;stroke-width:1.49989998;stroke-linecap:square;stroke-linejoin:miter;stroke-miterlimit:7.66129017;stroke-dasharray:none;stroke-opacity:1"
               id="path4222" />
          </g>
          <path
             d="m 200.5,271.2 c 1,0 1.8,-0.7 1.8,-1.8 0,-1 -0.8,-1.8 -1.8,-1.8 -1,0 -1.8,0.8 -1.8,1.8 0,1.1 0.8,1.8 1.8,1.8 z m -1.8,0 0,0 z m 3.6,-3.6 0,0 z"
             style="fill:#000000;fill-opacity:1;fill-rule:evenodd;stroke:none"
             id="path4224" />
          <g
             id="g4226">
            <path
               d="m 200.5,271.2 c 1,0 1.8,-0.7 1.8,-1.8 0,-1 -0.8,-1.8 -1.8,-1.8 -1,0 -1.8,0.8 -1.8,1.8 0,1.1 0.8,1.8 1.8,1.8 z"
               style="fill:none;stroke:#000000;stroke-width:0.73580003;stroke-linecap:square;stroke-linejoin:miter;stroke-miterlimit:7.66129017;stroke-dasharray:none;stroke-opacity:1"
               id="path4228" />
          </g>
          <g
             id="g4230">
            <path
               d="m 198.7,271.2 0,0 z"
               style="fill:none;stroke:#000000;stroke-width:0.73580003;stroke-linecap:square;stroke-linejoin:miter;stroke-miterlimit:7.66129017;stroke-dasharray:none;stroke-opacity:1"
               id="path4232" />
          </g>
          <g
             id="g4234">
            <path
               d="m 202.3,267.6 0,0 z"
               style="fill:none;stroke:#000000;stroke-width:0.73580003;stroke-linecap:square;stroke-linejoin:miter;stroke-miterlimit:7.66129017;stroke-dasharray:none;stroke-opacity:1"
               id="path4236" />
          </g>
          <path
             d="m 281.6,315.1 -11.2,0 0,22.5 22.5,0 0,-22.5 -11.3,0 z"
             style="fill:#ffffff;fill-opacity:1;fill-rule:evenodd;stroke:none"
             id="path4238" />
          <path
             d="m 290.9,325.9 0,11.2 3.6,0 0,-22.5 -3.6,0 0,11.3 z"
             style="fill:#000000;fill-opacity:1;fill-rule:evenodd;stroke:none"
             id="path4240" />
          <path
             d="m 284.6,326.7 0,11.3 3.4,0 0,-22.5 -3.4,0 0,11.2 z"
             style="fill:#000000;fill-opacity:1;fill-rule:evenodd;stroke:none"
             id="path4242" />
          <path
             d="m 278,326.7 0,11.3 3.6,0 0,-22.5 -3.6,0 0,11.2 z"
             style="fill:#000000;fill-opacity:1;fill-rule:evenodd;stroke:none"
             id="path4244" />
          <path
             d="m 459.5,395.7 c -6.1,0 -12.2,-6 -12.2,-12.1 l 0,-48.8 c 0,-6.1 6.1,-12.2 12.2,-12.2 l 65.6,0 c 6.1,0 12.3,6.1 12.3,12.2 l 0,48.8 c 0,6.1 -6.2,12.1 -12.3,12.1 l -65.6,0 z m -12.2,0 0,0 z m 90.1,-73.1 0,0 z"
             style="fill:#e6e6e6;fill-opacity:1;fill-rule:evenodd;stroke:none"
             id="path4246" />
          <g
             id="g4248">
            <path
               d="m 459.5,395.7 c -6.1,0 -12.2,-6 -12.2,-12.1 l 0,-48.8 c 0,-6.1 6.1,-12.2 12.2,-12.2 l 65.6,0 c 6.1,0 12.3,6.1 12.3,12.2 l 0,48.8 c 0,6.1 -6.2,12.1 -12.3,12.1 l -65.6,0 z"
               style="fill:none;stroke:#b3b3b3;stroke-width:1.49989998;stroke-linecap:square;stroke-linejoin:miter;stroke-miterlimit:7.66129017;stroke-dasharray:none;stroke-opacity:1"
               id="path4250" />
          </g>
          <g
             id="g4252">
            <path
               d="m 447.3,395.7 0,0 z"
               style="fill:none;stroke:#b3b3b3;stroke-width:1.49989998;stroke-linecap:square;stroke-linejoin:miter;stroke-miterlimit:7.66129017;stroke-dasharray:none;stroke-opacity:1"
               id="path4254" />
          </g>
          <g
             id="g4256">
            <path
               d="m 537.4,322.6 0,0 z"
               style="fill:none;stroke:#b3b3b3;stroke-width:1.49989998;stroke-linecap:square;stroke-linejoin:miter;stroke-miterlimit:7.66129017;stroke-dasharray:none;stroke-opacity:1"
               id="path4258" />
          </g>
          <path
             d="m 397.7,350.8 c -6.1,0 -12.2,-6.1 -12.2,-12.2 l 0,-48.8 c 0,-6.1 6.1,-12.2 12.2,-12.2 l 65.6,0 c 6.1,0 12.2,6.1 12.2,12.2 l 0,48.8 c 0,6.1 -6.1,12.2 -12.2,12.2 l -65.6,0 z m -12.2,0 0,0 z m 90,-73.2 0,0 z"
             style="fill:#e6e6e6;fill-opacity:1;fill-rule:evenodd;stroke:none"
             id="path4260" />
          <g
             id="g4262">
            <path
               d="m 397.7,350.8 c -6.1,0 -12.2,-6.1 -12.2,-12.2 l 0,-48.8 c 0,-6.1 6.1,-12.2 12.2,-12.2 l 65.6,0 c 6.1,0 12.2,6.1 12.2,12.2 l 0,48.8 c 0,6.1 -6.1,12.2 -12.2,12.2 l -65.6,0 z"
               style="fill:none;stroke:#b3b3b3;stroke-width:1.49989998;stroke-linecap:square;stroke-linejoin:miter;stroke-miterlimit:7.66129017;stroke-dasharray:none;stroke-opacity:1"
               id="path4264" />
          </g>
          <g
             id="g4266">
            <path
               d="m 385.5,350.8 0,0 z"
               style="fill:none;stroke:#b3b3b3;stroke-width:1.49989998;stroke-linecap:square;stroke-linejoin:miter;stroke-miterlimit:7.66129017;stroke-dasharray:none;stroke-opacity:1"
               id="path4268" />
          </g>
          <g
             id="g4270">
            <path
               d="m 475.5,277.6 0,0 z"
               style="fill:none;stroke:#b3b3b3;stroke-width:1.49989998;stroke-linecap:square;stroke-linejoin:miter;stroke-miterlimit:7.66129017;stroke-dasharray:none;stroke-opacity:1"
               id="path4272" />
          </g>
          <path
             d="m 431.1,317 c 1,0 1.8,-0.8 1.8,-1.8 0,-1 -0.8,-1.8 -1.8,-1.8 -1,0 -1.7,0.8 -1.7,1.8 0,1 0.7,1.8 1.7,1.8 z m -1.7,0 0,0 z m 3.5,-3.7 0,0 z"
             style="fill:#000000;fill-opacity:1;fill-rule:evenodd;stroke:none"
             id="path4274" />
          <g
             id="g4276">
            <path
               d="m 431.1,317 c 1,0 1.8,-0.8 1.8,-1.8 0,-1 -0.8,-1.8 -1.8,-1.8 -1,0 -1.7,0.8 -1.7,1.8 0,1 0.7,1.8 1.7,1.8 z"
               style="fill:none;stroke:#000000;stroke-width:0.73580003;stroke-linecap:square;stroke-linejoin:miter;stroke-miterlimit:7.66129017;stroke-dasharray:none;stroke-opacity:1"
               id="path4278" />
          </g>
          <g
             id="g4280">
            <path
               d="m 429.4,317 0,0 z"
               style="fill:none;stroke:#000000;stroke-width:0.73580003;stroke-linecap:square;stroke-linejoin:miter;stroke-miterlimit:7.66129017;stroke-dasharray:none;stroke-opacity:1"
               id="path4282" />
          </g>
          <g
             id="g4284">
            <path
               d="m 432.9,313.3 0,0 z"
               style="fill:none;stroke:#000000;stroke-width:0.73580003;stroke-linecap:square;stroke-linejoin:miter;stroke-miterlimit:7.66129017;stroke-dasharray:none;stroke-opacity:1"
               id="path4286" />
          </g>
          <path
             d="m 335.8,305.7 c -6.1,0 -12.2,-6 -12.2,-12.1 l 0,-48.8 c 0,-6.1 6.1,-12.2 12.2,-12.2 l 65.6,0 c 6.1,0 12.2,6.1 12.2,12.2 l 0,48.8 c 0,6.1 -6.1,12.1 -12.2,12.1 l -65.6,0 z m -12.2,0 0,0 z m 90,-73.1 0,0 z"
             style="fill:#e6e6e6;fill-opacity:1;fill-rule:evenodd;stroke:none"
             id="path4288" />
          <g
             id="g4290">
            <path
               d="m 335.8,305.7 c -6.1,0 -12.2,-6 -12.2,-12.1 l 0,-48.8 c 0,-6.1 6.1,-12.2 12.2,-12.2 l 65.6,0 c 6.1,0 12.2,6.1 12.2,12.2 l 0,48.8 c 0,6.1 -6.1,12.1 -12.2,12.1 l -65.6,0 z"
               style="fill:none;stroke:#b3b3b3;stroke-width:1.49989998;stroke-linecap:square;stroke-linejoin:miter;stroke-miterlimit:7.66129017;stroke-dasharray:none;stroke-opacity:1"
               id="path4292" />
          </g>
          <g
             id="g4294">
            <path
               d="m 323.6,305.7 0,0 z"
               style="fill:none;stroke:#b3b3b3;stroke-width:1.49989998;stroke-linecap:square;stroke-linejoin:miter;stroke-miterlimit:7.66129017;stroke-dasharray:none;stroke-opacity:1"
               id="path4296" />
          </g>
          <g
             id="g4298">
            <path
               d="m 413.6,232.6 0,0 z"
               style="fill:none;stroke:#b3b3b3;stroke-width:1.49989998;stroke-linecap:square;stroke-linejoin:miter;stroke-miterlimit:7.66129017;stroke-dasharray:none;stroke-opacity:1"
               id="path4300" />
          </g>
          <path
             d="m 369.2,272 c 1,0 1.8,-0.8 1.8,-1.8 0,-1 -0.8,-1.8 -1.8,-1.8 -1,0 -1.7,0.8 -1.7,1.8 0,1 0.7,1.8 1.7,1.8 z m -1.7,0 0,0 z m 3.5,-3.6 0,0 z"
             style="fill:#000000;fill-opacity:1;fill-rule:evenodd;stroke:none"
             id="path4302" />
          <g
             id="g4304">
            <path
               d="m 369.2,272 c 1,0 1.8,-0.8 1.8,-1.8 0,-1 -0.8,-1.8 -1.8,-1.8 -1,0 -1.7,0.8 -1.7,1.8 0,1 0.7,1.8 1.7,1.8 z"
               style="fill:none;stroke:#000000;stroke-width:0.73580003;stroke-linecap:square;stroke-linejoin:miter;stroke-miterlimit:7.66129017;stroke-dasharray:none;stroke-opacity:1"
               id="path4306" />
          </g>
          <g
             id="g4308">
            <path
               d="m 367.5,272 0,0 z"
               style="fill:none;stroke:#000000;stroke-width:0.73580003;stroke-linecap:square;stroke-linejoin:miter;stroke-miterlimit:7.66129017;stroke-dasharray:none;stroke-opacity:1"
               id="path4310" />
          </g>
          <g
             id="g4312">
            <path
               d="m 371,268.4 0,0 z"
               style="fill:none;stroke:#000000;stroke-width:0.73580003;stroke-linecap:square;stroke-linejoin:miter;stroke-miterlimit:7.66129017;stroke-dasharray:none;stroke-opacity:1"
               id="path4314" />
          </g>
          <path
             d="m 361.1,158.4 258.2,216.7 -3.2,3.8 14.1,-1.2 -1.2,-14.1 -3.3,3.8 -258.2,-216.6 -6.4,7.6 z m 262.6,226.9 0,0 z m -253,-238.4 0,0 z"
             style="fill:#606060;fill-opacity:1;fill-rule:evenodd;stroke:none"
             id="path4316" />
          <g
             id="g4318">
            <path
               d="m 361.1,158.4 258.2,216.7 -3.2,3.8 14.1,-1.2 -1.2,-14.1 -3.3,3.8 -258.2,-216.6 -6.4,7.6 z"
               style="fill:none;stroke:#606060;stroke-width:0.73580003;stroke-linecap:square;stroke-linejoin:round;stroke-miterlimit:10;stroke-dasharray:none;stroke-opacity:1"
               id="path4320" />
          </g>
          <g
             id="g4322">
            <path
               d="m 623.7,385.3 0,0 z"
               style="fill:none;stroke:#606060;stroke-width:0.73580003;stroke-linecap:square;stroke-linejoin:round;stroke-miterlimit:10;stroke-dasharray:none;stroke-opacity:1"
               id="path4324" />
          </g>
          <g
             id="g4326">
            <path
               d="m 370.7,146.9 0,0 z"
               style="fill:none;stroke:#606060;stroke-width:0.73580003;stroke-linecap:square;stroke-linejoin:round;stroke-miterlimit:10;stroke-dasharray:none;stroke-opacity:1"
               id="path4328" />
          </g>
          <g
             id="g4330">
            <text
               transform="matrix(1,0,0,-1,38.2,116.9)"
               style="font-variant:normal;font-weight:normal;font-size:10px;font-family:'Liberation Sans';-inkscape-font-specification:LiberationSans;writing-mode:lr-tb;fill:#000000;fill-opacity:1;fill-rule:nonzero;stroke:none"
               id="text4332">
              <tspan
                 x="0 5.5 7.6999998 13.2 18.700001 24.200001 27.59 30.379999 35.380001 40.880001 46.380001 49.169998 52.560001 58.060001 63.060001"
                 y="0"
                 id="tspan4334">higher contrast</tspan>
            </text>
          </g>
          <g
             id="g4336">
            <text
               transform="matrix(1,0,0,-1,210.6,117.1)"
               style="font-variant:normal;font-weight:normal;font-size:10px;font-family:'Liberation Sans';-inkscape-font-specification:LiberationSans;writing-mode:lr-tb;fill:#000000;fill-opacity:1;fill-rule:nonzero;stroke:none"
               id="text4338">
              <tspan
                 x="0 2.0999999 7.5999999 14.8 20.389999 23.690001 26.48 31.48 36.98 42.57 45.27 48.66 54.16 59.16"
                 y="0"
                 id="tspan4340">lower contrast</tspan>
            </text>
          </g>
          <g
             id="g4342">
            <text
               transform="matrix(1,0,0,-1,444,176.9)"
               style="font-variant:normal;font-weight:normal;font-size:10px;font-family:'Liberation Sans';-inkscape-font-specification:LiberationSans;writing-mode:lr-tb;fill:#000000;fill-opacity:1;fill-rule:nonzero;stroke:none"
               id="text4344">
              <tspan
                 x="0 5.5900002 11.09 16.59 19.379999 22.68 25.469999 30.969999 36.470001 42.060001 44.759998 53.060001"
                 y="0"
                 id="tspan4346">400 - 800 ms</tspan>
            </text>
          </g>
          <g
             id="g4348">
            <text
               transform="matrix(1,0,0,-1,550.5,267.7)"
               style="font-variant:normal;font-weight:normal;font-size:10px;font-family:'Liberation Sans';-inkscape-font-specification:LiberationSans;writing-mode:lr-tb;fill:#000000;fill-opacity:1;fill-rule:nonzero;stroke:none"
               id="text4350">
              <tspan
                 x="0 5.5900002 11.09 16.59 19.379999 27.68"
                 y="0"
                 id="tspan4352">512 ms</tspan>
            </text>
          </g>
          <g
             id="g4354">
            <text
               transform="matrix(1,0,0,-1,648.4,358.1)"
               style="font-variant:normal;font-weight:normal;font-size:10px;font-family:'Liberation Sans';-inkscape-font-specification:LiberationSans;writing-mode:lr-tb;fill:#000000;fill-opacity:1;fill-rule:nonzero;stroke:none"
               id="text4356">
              <tspan
                 x="0 5.5900002 11.09 16.59 19.379999 27.58"
                 y="0"
                 id="tspan4358">400 ms</tspan>
            </text>
          </g>
          <g
             id="g4360">
            <text
               transform="matrix(1,0,0,-1,498.6,222.3)"
               style="font-variant:normal;font-weight:normal;font-size:10px;font-family:'Liberation Sans';-inkscape-font-specification:LiberationSans;writing-mode:lr-tb;fill:#000000;fill-opacity:1;fill-rule:nonzero;stroke:none"
               id="text4362">
              <tspan
                 x="0 5.5 11 16.5 19.290001 27.59"
                 y="0"
                 id="tspan4364">512 ms</tspan>
            </text>
          </g>
          <path
             d="m 262.4,313.8 c 1,0 1.7,-0.8 1.7,-1.8 0,-1 -0.7,-1.8 -1.7,-1.8 -1,0 -1.8,0.8 -1.8,1.8 0,1 0.8,1.8 1.8,1.8 z m -1.8,0 0,0 z m 3.6,-3.7 0,0 z"
             style="fill:#000000;fill-opacity:1;fill-rule:evenodd;stroke:none"
             id="path4366" />
          <g
             id="g4368">
            <path
               d="m 262.4,313.8 c 1,0 1.7,-0.8 1.7,-1.8 0,-1 -0.7,-1.8 -1.7,-1.8 -1,0 -1.8,0.8 -1.8,1.8 0,1 0.8,1.8 1.8,1.8 z"
               style="fill:none;stroke:#000000;stroke-width:0.73580003;stroke-linecap:square;stroke-linejoin:miter;stroke-miterlimit:7.66129017;stroke-dasharray:none;stroke-opacity:1"
               id="path4370" />
          </g>
          <g
             id="g4372">
            <path
               d="m 260.6,313.8 0,0 z"
               style="fill:none;stroke:#000000;stroke-width:0.73580003;stroke-linecap:square;stroke-linejoin:miter;stroke-miterlimit:7.66129017;stroke-dasharray:none;stroke-opacity:1"
               id="path4374" />
          </g>
          <g
             id="g4376">
            <path
               d="m 264.2,310.1 0,0 z"
               style="fill:none;stroke:#000000;stroke-width:0.73580003;stroke-linecap:square;stroke-linejoin:miter;stroke-miterlimit:7.66129017;stroke-dasharray:none;stroke-opacity:1"
               id="path4378" />
          </g>
          <path
             d="m 441.5,326.4 0,11.2 22.5,0 0,-22.5 -22.5,0 0,11.3 z"
             style="fill:#d9d9d9;fill-opacity:1;fill-rule:evenodd;stroke:none"
             id="path4380" />
          <path
             d="m 103.3,261.1 c -6.1,0 -12.2,-6.1 -12.2,-12.2 l 0,-48.7 c 0,-6.1 6.1,-12.2 12.2,-12.2 l 65.6,0 c 6.1,0 12.2,6.1 12.2,12.2 l 0,48.7 c 0,6.1 -6.1,12.2 -12.2,12.2 l -65.6,0 z m -12.2,0 0,0 z m 90,-73.1 0,0 z"
             style="fill:#e6e6e6;fill-opacity:1;fill-rule:evenodd;stroke:none"
             id="path4382" />
          <g
             id="g4384">
            <path
               d="m 103.3,261.1 c -6.1,0 -12.2,-6.1 -12.2,-12.2 l 0,-48.7 c 0,-6.1 6.1,-12.2 12.2,-12.2 l 65.6,0 c 6.1,0 12.2,6.1 12.2,12.2 l 0,48.7 c 0,6.1 -6.1,12.2 -12.2,12.2 l -65.6,0 z"
               style="fill:none;stroke:#b3b3b3;stroke-width:1.49989998;stroke-linecap:square;stroke-linejoin:miter;stroke-miterlimit:7.66129017;stroke-dasharray:none;stroke-opacity:1"
               id="path4386" />
          </g>
          <g
             id="g4388">
            <path
               d="m 91.1,261.1 0,0 z"
               style="fill:none;stroke:#b3b3b3;stroke-width:1.49989998;stroke-linecap:square;stroke-linejoin:miter;stroke-miterlimit:7.66129017;stroke-dasharray:none;stroke-opacity:1"
               id="path4390" />
          </g>
          <g
             id="g4392">
            <path
               d="m 181.1,188 0,0 z"
               style="fill:none;stroke:#b3b3b3;stroke-width:1.49989998;stroke-linecap:square;stroke-linejoin:miter;stroke-miterlimit:7.66129017;stroke-dasharray:none;stroke-opacity:1"
               id="path4394" />
          </g>
          <path
             d="m 159.4,250 11.2,0 0,-22.5 -22.5,0 0,22.5 11.3,0 z"
             style="fill:#f2f2f2;fill-opacity:1;fill-rule:evenodd;stroke:none"
             id="path4396" />
          <path
             d="m 272.8,261.1 c -6.1,0 -12.2,-6.1 -12.2,-12.2 l 0,-48.7 c 0,-6.1 6.1,-12.2 12.2,-12.2 l 65.6,0 c 6.1,0 12.2,6.1 12.2,12.2 l 0,48.7 c 0,6.1 -6.1,12.2 -12.2,12.2 l -65.6,0 z m -12.2,0 0,0 z m 90,-73.1 0,0 z"
             style="fill:#e6e6e6;fill-opacity:1;fill-rule:evenodd;stroke:none"
             id="path4398" />
          <g
             id="g4400">
            <path
               d="m 272.8,261.1 c -6.1,0 -12.2,-6.1 -12.2,-12.2 l 0,-48.7 c 0,-6.1 6.1,-12.2 12.2,-12.2 l 65.6,0 c 6.1,0 12.2,6.1 12.2,12.2 l 0,48.7 c 0,6.1 -6.1,12.2 -12.2,12.2 l -65.6,0 z"
               style="fill:none;stroke:#b3b3b3;stroke-width:1.49989998;stroke-linecap:square;stroke-linejoin:miter;stroke-miterlimit:7.66129017;stroke-dasharray:none;stroke-opacity:1"
               id="path4402" />
          </g>
          <g
             id="g4404">
            <path
               d="m 260.6,261.1 0,0 z"
               style="fill:none;stroke:#b3b3b3;stroke-width:1.49989998;stroke-linecap:square;stroke-linejoin:miter;stroke-miterlimit:7.66129017;stroke-dasharray:none;stroke-opacity:1"
               id="path4406" />
          </g>
          <g
             id="g4408">
            <path
               d="m 350.6,188 0,0 z"
               style="fill:none;stroke:#b3b3b3;stroke-width:1.49989998;stroke-linecap:square;stroke-linejoin:miter;stroke-miterlimit:7.66129017;stroke-dasharray:none;stroke-opacity:1"
               id="path4410" />
          </g>
          <path
             d="m 306.3,227.4 c 0.9,0 1.7,-0.8 1.7,-1.8 0,-1.1 -0.8,-1.9 -1.7,-1.9 -1,0 -1.8,0.8 -1.8,1.9 0,1 0.8,1.8 1.8,1.8 z m -1.8,0 0,0 z m 3.5,-3.7 0,0 z"
             style="fill:#000000;fill-opacity:1;fill-rule:evenodd;stroke:none"
             id="path4412" />
          <g
             id="g4414">
            <path
               d="m 306.3,227.4 c 0.9,0 1.7,-0.8 1.7,-1.8 0,-1.1 -0.8,-1.9 -1.7,-1.9 -1,0 -1.8,0.8 -1.8,1.9 0,1 0.8,1.8 1.8,1.8 z"
               style="fill:none;stroke:#000000;stroke-width:0.73580003;stroke-linecap:square;stroke-linejoin:miter;stroke-miterlimit:7.66129017;stroke-dasharray:none;stroke-opacity:1"
               id="path4416" />
          </g>
          <g
             id="g4418">
            <path
               d="m 304.5,227.4 0,0 z"
               style="fill:none;stroke:#000000;stroke-width:0.73580003;stroke-linecap:square;stroke-linejoin:miter;stroke-miterlimit:7.66129017;stroke-dasharray:none;stroke-opacity:1"
               id="path4420" />
          </g>
          <g
             id="g4422">
            <path
               d="m 308,223.7 0,0 z"
               style="fill:none;stroke:#000000;stroke-width:0.73580003;stroke-linecap:square;stroke-linejoin:miter;stroke-miterlimit:7.66129017;stroke-dasharray:none;stroke-opacity:1"
               id="path4424" />
          </g>
          <path
             d="m 137.5,224.1 c 0.9,0 1.7,-0.8 1.7,-1.8 0,-1 -0.8,-1.8 -1.7,-1.8 -1,0 -1.8,0.8 -1.8,1.8 0,1 0.8,1.8 1.8,1.8 z m -1.8,0 0,0 z m 3.5,-3.6 0,0 z"
             style="fill:#000000;fill-opacity:1;fill-rule:evenodd;stroke:none"
             id="path4426" />
          <g
             id="g4428">
            <path
               d="m 137.5,224.1 c 0.9,0 1.7,-0.8 1.7,-1.8 0,-1 -0.8,-1.8 -1.7,-1.8 -1,0 -1.8,0.8 -1.8,1.8 0,1 0.8,1.8 1.8,1.8 z"
               style="fill:none;stroke:#000000;stroke-width:0.73580003;stroke-linecap:square;stroke-linejoin:miter;stroke-miterlimit:7.66129017;stroke-dasharray:none;stroke-opacity:1"
               id="path4430" />
          </g>
          <g
             id="g4432">
            <path
               d="m 135.7,224.1 0,0 z"
               style="fill:none;stroke:#000000;stroke-width:0.73580003;stroke-linecap:square;stroke-linejoin:miter;stroke-miterlimit:7.66129017;stroke-dasharray:none;stroke-opacity:1"
               id="path4434" />
          </g>
          <g
             id="g4436">
            <path
               d="m 139.2,220.5 0,0 z"
               style="fill:none;stroke:#000000;stroke-width:0.73580003;stroke-linecap:square;stroke-linejoin:miter;stroke-miterlimit:7.66129017;stroke-dasharray:none;stroke-opacity:1"
               id="path4438" />
          </g>
          <path
             d="m 43.3,215.1 c -6.1,0 -12.2,-6.1 -12.2,-12.2 l 0,-48.7 c 0,-6.1 6.1,-12.2 12.2,-12.2 l 65.6,0 c 6.1,0 12.2,6.1 12.2,12.2 l 0,48.7 c 0,6.1 -6.1,12.2 -12.2,12.2 l -65.6,0 z m -12.2,0 0,0 z m 90,-73.1 0,0 z"
             style="fill:#e6e6e6;fill-opacity:1;fill-rule:evenodd;stroke:none"
             id="path4440" />
          <g
             id="g4442">
            <path
               d="m 43.3,215.1 c -6.1,0 -12.2,-6.1 -12.2,-12.2 l 0,-48.7 c 0,-6.1 6.1,-12.2 12.2,-12.2 l 65.6,0 c 6.1,0 12.2,6.1 12.2,12.2 l 0,48.7 c 0,6.1 -6.1,12.2 -12.2,12.2 l -65.6,0 z"
               style="fill:none;stroke:#b3b3b3;stroke-width:1.49989998;stroke-linecap:square;stroke-linejoin:miter;stroke-miterlimit:7.66129017;stroke-dasharray:none;stroke-opacity:1"
               id="path4444" />
          </g>
          <g
             id="g4446">
            <path
               d="m 31.1,215.1 0,0 z"
               style="fill:none;stroke:#b3b3b3;stroke-width:1.49989998;stroke-linecap:square;stroke-linejoin:miter;stroke-miterlimit:7.66129017;stroke-dasharray:none;stroke-opacity:1"
               id="path4448" />
          </g>
          <g
             id="g4450">
            <path
               d="m 121.1,142 0,0 z"
               style="fill:none;stroke:#b3b3b3;stroke-width:1.49989998;stroke-linecap:square;stroke-linejoin:miter;stroke-miterlimit:7.66129017;stroke-dasharray:none;stroke-opacity:1"
               id="path4452" />
          </g>
          <path
             d="m 76.7,181.4 c 1,0 1.8,-0.8 1.8,-1.8 0,-1 -0.8,-1.8 -1.8,-1.8 -1,0 -1.7,0.8 -1.7,1.8 0,1 0.7,1.8 1.7,1.8 z m -1.7,0 0,0 z m 3.5,-3.7 0,0 z"
             style="fill:#000000;fill-opacity:1;fill-rule:evenodd;stroke:none"
             id="path4454" />
          <g
             id="g4456">
            <path
               d="m 76.7,181.4 c 1,0 1.8,-0.8 1.8,-1.8 0,-1 -0.8,-1.8 -1.8,-1.8 -1,0 -1.7,0.8 -1.7,1.8 0,1 0.7,1.8 1.7,1.8 z"
               style="fill:none;stroke:#000000;stroke-width:0.73580003;stroke-linecap:square;stroke-linejoin:miter;stroke-miterlimit:7.66129017;stroke-dasharray:none;stroke-opacity:1"
               id="path4458" />
          </g>
          <g
             id="g4460">
            <path
               d="m 75,181.4 0,0 z"
               style="fill:none;stroke:#000000;stroke-width:0.73580003;stroke-linecap:square;stroke-linejoin:miter;stroke-miterlimit:7.66129017;stroke-dasharray:none;stroke-opacity:1"
               id="path4462" />
          </g>
          <g
             id="g4464">
            <path
               d="m 78.5,177.7 0,0 z"
               style="fill:none;stroke:#000000;stroke-width:0.73580003;stroke-linecap:square;stroke-linejoin:miter;stroke-miterlimit:7.66129017;stroke-dasharray:none;stroke-opacity:1"
               id="path4466" />
          </g>
          <path
             d="m 212,215.9 c -6.1,0 -12.2,-6.1 -12.2,-12.2 l 0,-48.8 c 0,-6.1 6.1,-12.2 12.2,-12.2 l 65.7,0 c 6,0 12.2,6.1 12.2,12.2 l 0,48.8 c 0,6.1 -6.2,12.2 -12.2,12.2 l -65.7,0 z m -12.2,0 0,0 z m 90.1,-73.2 0,0 z"
             style="fill:#e6e6e6;fill-opacity:1;fill-rule:evenodd;stroke:none"
             id="path4468" />
          <g
             id="g4470">
            <path
               d="m 212,215.9 c -6.1,0 -12.2,-6.1 -12.2,-12.2 l 0,-48.8 c 0,-6.1 6.1,-12.2 12.2,-12.2 l 65.7,0 c 6,0 12.2,6.1 12.2,12.2 l 0,48.8 c 0,6.1 -6.2,12.2 -12.2,12.2 l -65.7,0 z"
               style="fill:none;stroke:#b3b3b3;stroke-width:1.49989998;stroke-linecap:square;stroke-linejoin:miter;stroke-miterlimit:7.66129017;stroke-dasharray:none;stroke-opacity:1"
               id="path4472" />
          </g>
          <g
             id="g4474">
            <path
               d="m 199.8,215.9 0,0 z"
               style="fill:none;stroke:#b3b3b3;stroke-width:1.49989998;stroke-linecap:square;stroke-linejoin:miter;stroke-miterlimit:7.66129017;stroke-dasharray:none;stroke-opacity:1"
               id="path4476" />
          </g>
          <g
             id="g4478">
            <path
               d="m 289.9,142.7 0,0 z"
               style="fill:none;stroke:#b3b3b3;stroke-width:1.49989998;stroke-linecap:square;stroke-linejoin:miter;stroke-miterlimit:7.66129017;stroke-dasharray:none;stroke-opacity:1"
               id="path4480" />
          </g>
          <path
             d="m 245.5,182.1 c 0.9,0 1.7,-0.8 1.7,-1.8 0,-1 -0.8,-1.8 -1.7,-1.8 -1,0 -1.8,0.8 -1.8,1.8 0,1 0.8,1.8 1.8,1.8 z m -1.8,0 0,0 z m 3.5,-3.6 0,0 z"
             style="fill:#000000;fill-opacity:1;fill-rule:evenodd;stroke:none"
             id="path4482" />
          <g
             id="g4484">
            <path
               d="m 245.5,182.1 c 0.9,0 1.7,-0.8 1.7,-1.8 0,-1 -0.8,-1.8 -1.7,-1.8 -1,0 -1.8,0.8 -1.8,1.8 0,1 0.8,1.8 1.8,1.8 z"
               style="fill:none;stroke:#000000;stroke-width:0.73580003;stroke-linecap:square;stroke-linejoin:miter;stroke-miterlimit:7.66129017;stroke-dasharray:none;stroke-opacity:1"
               id="path4486" />
          </g>
          <g
             id="g4488">
            <path
               d="m 243.7,182.1 0,0 z"
               style="fill:none;stroke:#000000;stroke-width:0.73580003;stroke-linecap:square;stroke-linejoin:miter;stroke-miterlimit:7.66129017;stroke-dasharray:none;stroke-opacity:1"
               id="path4490" />
          </g>
          <g
             id="g4492">
            <path
               d="m 247.2,178.5 0,0 z"
               style="fill:none;stroke:#000000;stroke-width:0.73580003;stroke-linecap:square;stroke-linejoin:miter;stroke-miterlimit:7.66129017;stroke-dasharray:none;stroke-opacity:1"
               id="path4494" />
          </g>
          <path
             d="m 165.1,236.4 0,11.2 3.6,0 0,-22.4 -3.6,0 0,11.2 z"
             style="fill:#606060;fill-opacity:1;fill-rule:evenodd;stroke:none"
             id="path4496" />
          <path
             d="m 151.6,237.3 0,11.3 3.6,0 0,-22.5 -3.6,0 0,11.2 z"
             style="fill:#606060;fill-opacity:1;fill-rule:evenodd;stroke:none"
             id="path4498" />
          <path
             d="m 158.9,237.3 0,11.3 3.6,0 0,-22.5 -3.6,0 0,11.2 z"
             style="fill:#606060;fill-opacity:1;fill-rule:evenodd;stroke:none"
             id="path4500" />
          <path
             d="m 144.6,236.8 0,11.2 3.6,0 0,-22.4 -3.6,0 0,11.2 z"
             style="fill:#606060;fill-opacity:1;fill-rule:evenodd;stroke:none"
             id="path4502" />
          <path
             d="m 134.8,237.3 c 0,12.1 9.8,22 21.9,22 12.1,0 21.9,-9.9 21.9,-22 0,-12.1 -9.8,-22 -21.9,-22 -12.1,0 -21.9,9.9 -21.9,22 l 0,0 z m 11,0 c 0,-6 4.9,-11 10.9,-11 6.1,0 10.9,5 10.9,11 0,6.1 -4.8,11 -10.9,11 -6,0 -10.9,-4.9 -10.9,-11 l 0,0 z m -11,22 0,0 z m 43.8,-44 0,0 z"
             style="fill:#e6e6e6;fill-opacity:1;fill-rule:evenodd;stroke:none"
             id="path4504" />
          <path
             d="m 318.9,238.1 0,11.3 22.3,0 0,-22.5 -22.3,0 0,11.2 z"
             style="fill:#f2f2f2;fill-opacity:1;fill-rule:evenodd;stroke:none"
             id="path4506" />
          <path
             d="m 336.2,238.1 0,11.3 3.6,0 0,-22.5 -3.6,0 0,11.2 z"
             style="fill:#606060;fill-opacity:1;fill-rule:evenodd;stroke:none"
             id="path4508" />
          <path
             d="m 322.8,238.1 0,11.3 3.6,0 0,-22.5 -3.6,0 0,11.2 z"
             style="fill:#606060;fill-opacity:1;fill-rule:evenodd;stroke:none"
             id="path4510" />
          <path
             d="m 329.9,238.1 0,11.3 3.5,0 0,-22.5 -3.5,0 0,11.2 z"
             style="fill:#606060;fill-opacity:1;fill-rule:evenodd;stroke:none"
             id="path4512" />
          <path
             d="m 316,236.6 0,11.3 3.5,0 0,-22.5 -3.5,0 0,11.2 z"
             style="fill:#606060;fill-opacity:1;fill-rule:evenodd;stroke:none"
             id="path4514" />
          <path
             d="m 305.9,237.3 c 0,12.1 9.7,22 21.8,22 12.1,0 21.9,-9.9 21.9,-22 0,-12.1 -9.8,-22 -21.9,-22 -12.1,0 -21.8,9.9 -21.8,22 l 0,0 z m 10.9,0 c 0,-6 4.9,-11 10.9,-11 6.1,0 11,5 11,11 0,6.1 -4.9,11 -11,11 -6,0 -10.9,-4.9 -10.9,-11 l 0,0 z m -10.9,22 0,0 z m 43.7,-44 0,0 z"
             style="fill:#e6e6e6;fill-opacity:1;fill-rule:evenodd;stroke:none"
             id="path4516" />
          <path
             d="m 271.4,326.7 0,11.3 3.6,0 0,-22.5 -3.6,0 0,11.2 z"
             style="fill:#000000;fill-opacity:1;fill-rule:evenodd;stroke:none"
             id="path4518" />
          <path
             d="m 283.1,348.2 c 12.1,0 21.9,-9.8 21.9,-21.9 0,-12.1 -9.8,-21.9 -21.9,-21.9 -12.2,0 -22,9.8 -22,21.9 0,12.1 9.8,21.9 22,21.9 l 0,0 z m 0,-11 c -6.1,0 -11,-4.9 -11,-10.9 0,-6.1 4.9,-10.9 11,-10.9 6,0 11,4.8 11,10.9 0,6 -5,10.9 -11,10.9 l 0,0 z m 21.9,11 0,0 z m -43.9,-43.8 0,0 z"
             style="fill:#e6e6e6;fill-opacity:1;fill-rule:evenodd;stroke:none"
             id="path4520" />
          <path
             d="m 461.1,327.4 0,11.2 3.6,0 0,-22.5 -3.6,0 0,11.3 z"
             style="fill:#b3b3b3;fill-opacity:1;fill-rule:evenodd;stroke:none"
             id="path4522" />
          <path
             d="m 447.6,327.4 0,11.2 3.6,0 0,-22.5 -3.6,0 0,11.3 z"
             style="fill:#b3b3b3;fill-opacity:1;fill-rule:evenodd;stroke:none"
             id="path4524" />
          <path
             d="m 454.7,327.4 0,11.2 3.6,0 0,-22.5 -3.6,0 0,11.3 z"
             style="fill:#b3b3b3;fill-opacity:1;fill-rule:evenodd;stroke:none"
             id="path4526" />
          <path
             d="m 441.1,327 0,11.3 3.6,0 0,-22.5 -3.6,0 0,11.2 z"
             style="fill:#b3b3b3;fill-opacity:1;fill-rule:evenodd;stroke:none"
             id="path4528" />
          <path
             d="m 430.7,327 c 0,12.2 9.8,22 21.9,22 12.1,0 21.9,-9.8 21.9,-22 0,-12.2 -9.8,-22 -21.9,-22 -12.1,0 -21.9,9.8 -21.9,22 l 0,0 z m 10.9,0 c 0,-6.1 4.9,-11.1 11,-11.1 6,0 10.9,5 10.9,11.1 0,6.1 -4.9,11.1 -10.9,11.1 -6.1,0 -11,-5 -11,-11.1 l 0,0 z m -10.9,22 0,0 z m 43.8,-44 0,0 z"
             style="fill:#e6e6e6;fill-opacity:1;fill-rule:evenodd;stroke:none"
             id="path4530" />
          <path
             d="m 324.3,361.2 c 0.9,0 1.7,-0.7 1.7,-1.8 0,-1 -0.8,-1.8 -1.7,-1.8 -1,0 -1.8,0.8 -1.8,1.8 0,1.1 0.8,1.8 1.8,1.8 z m -1.8,0 0,0 z m 3.5,-3.6 0,0 z"
             style="fill:#000000;fill-opacity:1;fill-rule:evenodd;stroke:none"
             id="path4532" />
          <g
             id="g4534">
            <path
               d="m 324.3,361.2 c 0.9,0 1.7,-0.7 1.7,-1.8 0,-1 -0.8,-1.8 -1.7,-1.8 -1,0 -1.8,0.8 -1.8,1.8 0,1.1 0.8,1.8 1.8,1.8 z"
               style="fill:none;stroke:#000000;stroke-width:0.73580003;stroke-linecap:square;stroke-linejoin:miter;stroke-miterlimit:7.66129017;stroke-dasharray:none;stroke-opacity:1"
               id="path4536" />
          </g>
          <g
             id="g4538">
            <path
               d="m 322.5,361.2 0,0 z"
               style="fill:none;stroke:#000000;stroke-width:0.73580003;stroke-linecap:square;stroke-linejoin:miter;stroke-miterlimit:7.66129017;stroke-dasharray:none;stroke-opacity:1"
               id="path4540" />
          </g>
          <g
             id="g4542">
            <path
               d="m 326,357.6 0,0 z"
               style="fill:none;stroke:#000000;stroke-width:0.73580003;stroke-linecap:square;stroke-linejoin:miter;stroke-miterlimit:7.66129017;stroke-dasharray:none;stroke-opacity:1"
               id="path4544" />
          </g>
          <path
             d="m 493,362 c 1,0 1.8,-0.8 1.8,-1.8 0,-1 -0.8,-1.8 -1.8,-1.8 -1,0 -1.8,0.8 -1.8,1.8 0,1 0.8,1.8 1.8,1.8 z m -1.8,0 0,0 z m 3.6,-3.6 0,0 z"
             style="fill:#000000;fill-opacity:1;fill-rule:evenodd;stroke:none"
             id="path4546" />
          <g
             id="g4548">
            <path
               d="m 493,362 c 1,0 1.8,-0.8 1.8,-1.8 0,-1 -0.8,-1.8 -1.8,-1.8 -1,0 -1.8,0.8 -1.8,1.8 0,1 0.8,1.8 1.8,1.8 z"
               style="fill:none;stroke:#000000;stroke-width:0.73580003;stroke-linecap:square;stroke-linejoin:miter;stroke-miterlimit:7.66129017;stroke-dasharray:none;stroke-opacity:1"
               id="path4550" />
          </g>
          <g
             id="g4552">
            <path
               d="m 491.2,362 0,0 z"
               style="fill:none;stroke:#000000;stroke-width:0.73580003;stroke-linecap:square;stroke-linejoin:miter;stroke-miterlimit:7.66129017;stroke-dasharray:none;stroke-opacity:1"
               id="path4554" />
          </g>
          <g
             id="g4556">
            <path
               d="m 494.8,358.4 0,0 z"
               style="fill:none;stroke:#000000;stroke-width:0.73580003;stroke-linecap:square;stroke-linejoin:miter;stroke-miterlimit:7.66129017;stroke-dasharray:none;stroke-opacity:1"
               id="path4558" />
          </g>
          <path
             d="m 383.2,423.1 -2.8,0 0,5.6 5.6,0 0,-5.6 -2.8,0 z"
             style="fill:#ffffff;fill-opacity:1;fill-rule:evenodd;stroke:none"
             id="path4560" />
          <g
             id="g4562">
            <path
               d="m 383.2,423.1 -2.8,0 0,5.6 5.6,0 0,-5.6 -2.8,0 z"
               style="fill:none;stroke:#a6a6a6;stroke-width:0.73580003;stroke-linecap:square;stroke-linejoin:round;stroke-miterlimit:10;stroke-dasharray:none;stroke-opacity:1"
               id="path4564" />
          </g>
          <path
             d="m 584,401.3 -2.8,0 0,5.6 5.5,0 0,-5.6 -2.7,0 z"
             style="fill:#000000;fill-opacity:1;fill-rule:evenodd;stroke:none"
             id="path4566" />
          <g
             id="g4568">
            <path
               d="m 584,401.3 -2.8,0 0,5.6 5.5,0 0,-5.6 -2.7,0 z"
               style="fill:none;stroke:#a6a6a6;stroke-width:0.73580003;stroke-linecap:square;stroke-linejoin:round;stroke-miterlimit:10;stroke-dasharray:none;stroke-opacity:1"
               id="path4570" />
          </g>
          <g
             id="g4572">
            <text
               transform="matrix(1,0,0,-1,601.2,313.1)"
               style="font-variant:normal;font-weight:normal;font-size:10px;font-family:'Liberation Sans';-inkscape-font-specification:LiberationSans;writing-mode:lr-tb;fill:#000000;fill-opacity:1;fill-rule:nonzero;stroke:none"
               id="text4574">
              <tspan
                 x="0 5.5 11 16.5 19.290001 27.59"
                 y="0"
                 id="tspan4576">512 ms</tspan>
            </text>
          </g>
          <g
             id="g4578">
            <text
               transform="matrix(1,0,0,-1,26.8,211.8)"
               style="font-variant:normal;font-weight:bold;font-size:12px;font-family:'Liberation Sans';-inkscape-font-specification:LiberationSans-Bold;writing-mode:lr-tb;fill:#000000;fill-opacity:1;fill-rule:nonzero;stroke:none"
               id="text4580">
              <tspan
                 x="0"
                 y="0"
                 id="tspan4582">1</tspan>
            </text>
          </g>
          <g
             id="g4584">
            <text
               transform="matrix(1,0,0,-1,272.1,391.7)"
               style="font-variant:normal;font-weight:bold;font-size:12px;font-family:'Liberation Sans';-inkscape-font-specification:LiberationSans-Bold;writing-mode:lr-tb;fill:#000000;fill-opacity:1;fill-rule:nonzero;stroke:none"
               id="text4586">
              <tspan
                 x="0"
                 y="0"
                 id="tspan4588">5</tspan>
            </text>
          </g>
          <g
             id="g4590">
            <text
               transform="matrix(1,0,0,-1,210.4,347.6)"
               style="font-variant:normal;font-weight:bold;font-size:12px;font-family:'Liberation Sans';-inkscape-font-specification:LiberationSans-Bold;writing-mode:lr-tb;fill:#000000;fill-opacity:1;fill-rule:nonzero;stroke:none"
               id="text4592">
              <tspan
                 x="0"
                 y="0"
                 id="tspan4594">4</tspan>
            </text>
          </g>
          <g
             id="g4596">
            <text
               transform="matrix(1,0,0,-1,330.7,435.7)"
               style="font-variant:normal;font-weight:bold;font-size:12px;font-family:'Liberation Sans';-inkscape-font-specification:LiberationSans-Bold;writing-mode:lr-tb;fill:#000000;fill-opacity:1;fill-rule:nonzero;stroke:none"
               id="text4598">
              <tspan
                 x="0"
                 y="0"
                 id="tspan4600">6</tspan>
            </text>
          </g>
          <g
             id="g4602">
            <text
               transform="matrix(1,0,0,-1,148.2,302.6)"
               style="font-variant:normal;font-weight:bold;font-size:12px;font-family:'Liberation Sans';-inkscape-font-specification:LiberationSans-Bold;writing-mode:lr-tb;fill:#000000;fill-opacity:1;fill-rule:nonzero;stroke:none"
               id="text4604">
              <tspan
                 x="0"
                 y="0"
                 id="tspan4606">3</tspan>
            </text>
          </g>
          <g
             id="g4608">
            <text
               transform="matrix(1,0,0,-1,85.7,257.2)"
               style="font-variant:normal;font-weight:bold;font-size:12px;font-family:'Liberation Sans';-inkscape-font-specification:LiberationSans-Bold;writing-mode:lr-tb;fill:#000000;fill-opacity:1;fill-rule:nonzero;stroke:none"
               id="text4610">
              <tspan
                 x="0"
                 y="0"
                 id="tspan4612">2</tspan>
            </text>
          </g>
          <path
             d="m 413.8,400.4 -2.8,0 0,5.7 5.6,0 0,-5.7 -2.8,0 z"
             style="fill:#000000;fill-opacity:1;fill-rule:evenodd;stroke:none"
             id="path4614" />
          <g
             id="g4616">
            <path
               d="m 413.8,400.4 -2.8,0 0,5.7 5.6,0 0,-5.7 -2.8,0 z"
               style="fill:none;stroke:#a6a6a6;stroke-width:0.73580003;stroke-linecap:square;stroke-linejoin:round;stroke-miterlimit:10;stroke-dasharray:none;stroke-opacity:1"
               id="path4618" />
          </g>
          <path
             d="m 549.9,423.1 -2.8,0 0,5.6 5.6,0 0,-5.6 -2.8,0 z"
             style="fill:#ffffff;fill-opacity:1;fill-rule:evenodd;stroke:none"
             id="path4620" />
          <g
             id="g4622">
            <path
               d="m 549.9,423.1 -2.8,0 0,5.6 5.6,0 0,-5.6 -2.8,0 z"
               style="fill:none;stroke:#a6a6a6;stroke-width:0.73580003;stroke-linecap:square;stroke-linejoin:round;stroke-miterlimit:10;stroke-dasharray:none;stroke-opacity:1"
               id="path4624" />
          </g>
        </g>
      </g>
    </g>
  </g>
</svg>
