<?xml version="1.0" encoding="utf-8" standalone="no"?><!DOCTYPE svg PUBLIC "-//W3C//DTD SVG 1.1//EN" "http://www.w3.org/Graphics/SVG/1.1/DTD/svg11.dtd">
<svg preserveAspectRatio="xMinYMin meet" width="100%" height="100%" viewBox="0 0 800.000 800.000"  version="1.1" xmlns="http://www.w3.org/2000/svg" xmlns:xlink="http://www.w3.org/1999/xlink">
  <desc>Matlab Figure Converted by PLOT2SVG written by Juerg Schwizer</desc>
  <g id="topgroup">
  <rect x="0" y="0" width="800.000" height="800.000" fill="#ffffff" stroke="none" />
  <g id ="ID000000">
  <clipPath id="ID000001">
    <rect x="104.000" y="60.000" width="620.000" height="652.000"/>
  </clipPath>
      <polygon fill="#ffffff" fill-opacity="1.00" stroke="none" stroke-width="0.5pt" stroke-opacity="1.00" stroke-dasharray="none" points="104.000,712.000 724.000,712.000 724.000,60.000 104.000,60.000 "/>
      <polygon fill="#ffffff" fill-opacity="1.00" stroke="none" stroke-width="0.5pt" stroke-opacity="1.00" stroke-dasharray="none" points="104.000,60.000 724.000,60.000 724.000,60.000 104.000,60.000 "/>
      <polygon fill="#ffffff" fill-opacity="1.00" stroke="none" stroke-width="0.5pt" stroke-opacity="1.00" stroke-dasharray="none" points="104.000,712.000 104.000,712.000 104.000,60.000 104.000,60.000 "/>
    <g>
<g id="ID000002" clip-path="url(#ID000001)" >
      <polygon fill="#000000" fill-opacity="0.30" stroke="#000000" stroke-width="0.5pt" stroke-opacity="1.00" stroke-dasharray="none" points="104.000,712.000 104.000,712.000 119.500,712.000 119.500,712.000 "/>
      <polygon fill="#000000" fill-opacity="0.30" stroke="#000000" stroke-width="0.5pt" stroke-opacity="1.00" stroke-dasharray="none" points="119.500,712.000 119.500,712.000 135.000,712.000 135.000,712.000 "/>
      <polygon fill="#000000" fill-opacity="0.30" stroke="#000000" stroke-width="0.5pt" stroke-opacity="1.00" stroke-dasharray="none" points="135.000,712.000 135.000,712.000 150.500,712.000 150.500,712.000 "/>
      <polygon fill="#000000" fill-opacity="0.30" stroke="#000000" stroke-width="0.5pt" stroke-opacity="1.00" stroke-dasharray="none" points="150.500,712.000 150.500,712.000 166.000,712.000 166.000,712.000 "/>
      <polygon fill="#000000" fill-opacity="0.30" stroke="#000000" stroke-width="0.5pt" stroke-opacity="1.00" stroke-dasharray="none" points="166.000,712.000 166.000,712.000 181.500,712.000 181.500,712.000 "/>
      <polygon fill="#000000" fill-opacity="0.30" stroke="#000000" stroke-width="0.5pt" stroke-opacity="1.00" stroke-dasharray="none" points="181.500,712.000 181.500,712.000 197.000,712.000 197.000,712.000 "/>
      <polygon fill="#000000" fill-opacity="0.30" stroke="#000000" stroke-width="0.5pt" stroke-opacity="1.00" stroke-dasharray="none" points="197.000,712.000 197.000,712.000 212.500,712.000 212.500,712.000 "/>
      <polygon fill="#000000" fill-opacity="0.30" stroke="#000000" stroke-width="0.5pt" stroke-opacity="1.00" stroke-dasharray="none" points="212.500,712.000 212.500,712.000 228.000,712.000 228.000,712.000 "/>
      <polygon fill="#000000" fill-opacity="0.30" stroke="#000000" stroke-width="0.5pt" stroke-opacity="1.00" stroke-dasharray="none" points="228.000,712.000 228.000,712.000 243.500,712.000 243.500,712.000 "/>
      <polygon fill="#000000" fill-opacity="0.30" stroke="#000000" stroke-width="0.5pt" stroke-opacity="1.00" stroke-dasharray="none" points="243.500,712.000 243.500,712.000 259.000,712.000 259.000,712.000 "/>
      <polygon fill="#000000" fill-opacity="0.30" stroke="#000000" stroke-width="0.5pt" stroke-opacity="1.00" stroke-dasharray="none" points="259.000,712.000 259.000,712.000 274.500,712.000 274.500,712.000 "/>
      <polygon fill="#000000" fill-opacity="0.30" stroke="#000000" stroke-width="0.5pt" stroke-opacity="1.00" stroke-dasharray="none" points="274.500,712.000 274.500,712.000 290.000,712.000 290.000,712.000 "/>
      <polygon fill="#000000" fill-opacity="0.30" stroke="#000000" stroke-width="0.5pt" stroke-opacity="1.00" stroke-dasharray="none" points="290.000,712.000 290.000,710.137 305.500,710.137 305.500,712.000 "/>
      <polygon fill="#000000" fill-opacity="0.30" stroke="#000000" stroke-width="0.5pt" stroke-opacity="1.00" stroke-dasharray="none" points="305.500,712.000 305.500,710.137 321.000,710.137 321.000,712.000 "/>
      <polygon fill="#000000" fill-opacity="0.30" stroke="#000000" stroke-width="0.5pt" stroke-opacity="1.00" stroke-dasharray="none" points="321.000,712.000 321.000,706.411 336.500,706.411 336.500,712.000 "/>
      <polygon fill="#000000" fill-opacity="0.30" stroke="#000000" stroke-width="0.5pt" stroke-opacity="1.00" stroke-dasharray="none" points="336.500,712.000 336.500,676.606 352.000,676.606 352.000,712.000 "/>
      <polygon fill="#000000" fill-opacity="0.30" stroke="#000000" stroke-width="0.5pt" stroke-opacity="1.00" stroke-dasharray="none" points="352.000,712.000 352.000,633.760 367.500,633.760 367.500,712.000 "/>
      <polygon fill="#000000" fill-opacity="0.30" stroke="#000000" stroke-width="0.5pt" stroke-opacity="1.00" stroke-dasharray="none" points="367.500,712.000 367.500,568.560 383.000,568.560 383.000,712.000 "/>
      <polygon fill="#000000" fill-opacity="0.30" stroke="#000000" stroke-width="0.5pt" stroke-opacity="1.00" stroke-dasharray="none" points="383.000,712.000 383.000,430.709 398.500,430.709 398.500,712.000 "/>
      <polygon fill="#000000" fill-opacity="0.30" stroke="#000000" stroke-width="0.5pt" stroke-opacity="1.00" stroke-dasharray="none" points="398.500,712.000 398.500,292.857 414.000,292.857 414.000,712.000 "/>
      <polygon fill="#000000" fill-opacity="0.30" stroke="#000000" stroke-width="0.5pt" stroke-opacity="1.00" stroke-dasharray="none" points="414.000,712.000 414.000,197.851 429.500,197.851 429.500,712.000 "/>
      <polygon fill="#000000" fill-opacity="0.30" stroke="#000000" stroke-width="0.5pt" stroke-opacity="1.00" stroke-dasharray="none" points="429.500,712.000 429.500,134.514 445.000,134.514 445.000,712.000 "/>
      <polygon fill="#000000" fill-opacity="0.30" stroke="#000000" stroke-width="0.5pt" stroke-opacity="1.00" stroke-dasharray="none" points="445.000,712.000 445.000,130.789 460.500,130.789 460.500,712.000 "/>
      <polygon fill="#000000" fill-opacity="0.30" stroke="#000000" stroke-width="0.5pt" stroke-opacity="1.00" stroke-dasharray="none" points="460.500,712.000 460.500,277.954 476.000,277.954 476.000,712.000 "/>
      <polygon fill="#000000" fill-opacity="0.30" stroke="#000000" stroke-width="0.5pt" stroke-opacity="1.00" stroke-dasharray="none" points="476.000,712.000 476.000,382.274 491.500,382.274 491.500,712.000 "/>
      <polygon fill="#000000" fill-opacity="0.30" stroke="#000000" stroke-width="0.5pt" stroke-opacity="1.00" stroke-dasharray="none" points="491.500,712.000 491.500,486.594 507.000,486.594 507.000,712.000 "/>
      <polygon fill="#000000" fill-opacity="0.30" stroke="#000000" stroke-width="0.5pt" stroke-opacity="1.00" stroke-dasharray="none" points="507.000,712.000 507.000,564.834 522.500,564.834 522.500,712.000 "/>
      <polygon fill="#000000" fill-opacity="0.30" stroke="#000000" stroke-width="0.5pt" stroke-opacity="1.00" stroke-dasharray="none" points="522.500,712.000 522.500,618.857 538.000,618.857 538.000,712.000 "/>
      <polygon fill="#000000" fill-opacity="0.30" stroke="#000000" stroke-width="0.5pt" stroke-opacity="1.00" stroke-dasharray="none" points="538.000,712.000 538.000,659.840 553.500,659.840 553.500,712.000 "/>
      <polygon fill="#000000" fill-opacity="0.30" stroke="#000000" stroke-width="0.5pt" stroke-opacity="1.00" stroke-dasharray="none" points="553.500,712.000 553.500,672.880 569.000,672.880 569.000,712.000 "/>
      <polygon fill="#000000" fill-opacity="0.30" stroke="#000000" stroke-width="0.5pt" stroke-opacity="1.00" stroke-dasharray="none" points="569.000,712.000 569.000,697.097 584.500,697.097 584.500,712.000 "/>
      <polygon fill="#000000" fill-opacity="0.30" stroke="#000000" stroke-width="0.5pt" stroke-opacity="1.00" stroke-dasharray="none" points="584.500,712.000 584.500,702.686 600.000,702.686 600.000,712.000 "/>
      <polygon fill="#000000" fill-opacity="0.30" stroke="#000000" stroke-width="0.5pt" stroke-opacity="1.00" stroke-dasharray="none" points="600.000,712.000 600.000,710.137 615.500,710.137 615.500,712.000 "/>
      <polygon fill="#000000" fill-opacity="0.30" stroke="#000000" stroke-width="0.5pt" stroke-opacity="1.00" stroke-dasharray="none" points="615.500,712.000 615.500,710.137 631.000,710.137 631.000,712.000 "/>
      <polygon fill="#000000" fill-opacity="0.30" stroke="#000000" stroke-width="0.5pt" stroke-opacity="1.00" stroke-dasharray="none" points="631.000,712.000 631.000,710.137 646.500,710.137 646.500,712.000 "/>
      <polygon fill="#000000" fill-opacity="0.30" stroke="#000000" stroke-width="0.5pt" stroke-opacity="1.00" stroke-dasharray="none" points="646.500,712.000 646.500,712.000 662.000,712.000 662.000,712.000 "/>
      <polygon fill="#000000" fill-opacity="0.30" stroke="#000000" stroke-width="0.5pt" stroke-opacity="1.00" stroke-dasharray="none" points="662.000,712.000 662.000,712.000 677.500,712.000 677.500,712.000 "/>
      <polygon fill="#000000" fill-opacity="0.30" stroke="#000000" stroke-width="0.5pt" stroke-opacity="1.00" stroke-dasharray="none" points="677.500,712.000 677.500,712.000 693.000,712.000 693.000,712.000 "/>
      <polygon fill="#000000" fill-opacity="0.30" stroke="#000000" stroke-width="0.5pt" stroke-opacity="1.00" stroke-dasharray="none" points="693.000,712.000 693.000,712.000 708.500,712.000 708.500,712.000 "/>
      <polygon fill="#000000" fill-opacity="0.30" stroke="#000000" stroke-width="0.5pt" stroke-opacity="1.00" stroke-dasharray="none" points="708.500,712.000 708.500,712.000 724.000,712.000 724.000,712.000 "/>
      <polygon fill="#000000" fill-opacity="0.30" stroke="#000000" stroke-width="0.5pt" stroke-opacity="1.00" stroke-dasharray="none" points="724.000,712.000 724.000,712.000 739.500,712.000 739.500,712.000 "/>
</g>
<g id="ID000003" clip-path="url(#ID000001)" >
      <polygon fill="#ff0000" fill-opacity="0.30" stroke="#ff0000" stroke-width="0.5pt" stroke-opacity="1.00" stroke-dasharray="none" points="104.000,712.000 104.000,712.000 119.500,712.000 119.500,712.000 "/>
      <polygon fill="#ff0000" fill-opacity="0.30" stroke="#ff0000" stroke-width="0.5pt" stroke-opacity="1.00" stroke-dasharray="none" points="119.500,712.000 119.500,712.000 135.000,712.000 135.000,712.000 "/>
      <polygon fill="#ff0000" fill-opacity="0.30" stroke="#ff0000" stroke-width="0.5pt" stroke-opacity="1.00" stroke-dasharray="none" points="135.000,712.000 135.000,712.000 150.500,712.000 150.500,712.000 "/>
      <polygon fill="#ff0000" fill-opacity="0.30" stroke="#ff0000" stroke-width="0.5pt" stroke-opacity="1.00" stroke-dasharray="none" points="150.500,712.000 150.500,712.000 166.000,712.000 166.000,712.000 "/>
      <polygon fill="#ff0000" fill-opacity="0.30" stroke="#ff0000" stroke-width="0.5pt" stroke-opacity="1.00" stroke-dasharray="none" points="166.000,712.000 166.000,712.000 181.500,712.000 181.500,712.000 "/>
      <polygon fill="#ff0000" fill-opacity="0.30" stroke="#ff0000" stroke-width="0.5pt" stroke-opacity="1.00" stroke-dasharray="none" points="181.500,712.000 181.500,712.000 197.000,712.000 197.000,712.000 "/>
      <polygon fill="#ff0000" fill-opacity="0.30" stroke="#ff0000" stroke-width="0.5pt" stroke-opacity="1.00" stroke-dasharray="none" points="197.000,712.000 197.000,712.000 212.500,712.000 212.500,712.000 "/>
      <polygon fill="#ff0000" fill-opacity="0.30" stroke="#ff0000" stroke-width="0.5pt" stroke-opacity="1.00" stroke-dasharray="none" points="212.500,712.000 212.500,712.000 228.000,712.000 228.000,712.000 "/>
      <polygon fill="#ff0000" fill-opacity="0.30" stroke="#ff0000" stroke-width="0.5pt" stroke-opacity="1.00" stroke-dasharray="none" points="228.000,712.000 228.000,712.000 243.500,712.000 243.500,712.000 "/>
      <polygon fill="#ff0000" fill-opacity="0.30" stroke="#ff0000" stroke-width="0.5pt" stroke-opacity="1.00" stroke-dasharray="none" points="243.500,712.000 243.500,712.000 259.000,712.000 259.000,712.000 "/>
      <polygon fill="#ff0000" fill-opacity="0.30" stroke="#ff0000" stroke-width="0.5pt" stroke-opacity="1.00" stroke-dasharray="none" points="259.000,712.000 259.000,712.000 274.500,712.000 274.500,712.000 "/>
      <polygon fill="#ff0000" fill-opacity="0.30" stroke="#ff0000" stroke-width="0.5pt" stroke-opacity="1.00" stroke-dasharray="none" points="274.500,712.000 274.500,710.137 290.000,710.137 290.000,712.000 "/>
      <polygon fill="#ff0000" fill-opacity="0.30" stroke="#ff0000" stroke-width="0.5pt" stroke-opacity="1.00" stroke-dasharray="none" points="290.000,712.000 290.000,706.411 305.500,706.411 305.500,712.000 "/>
      <polygon fill="#ff0000" fill-opacity="0.30" stroke="#ff0000" stroke-width="0.5pt" stroke-opacity="1.00" stroke-dasharray="none" points="305.500,712.000 305.500,695.234 321.000,695.234 321.000,712.000 "/>
      <polygon fill="#ff0000" fill-opacity="0.30" stroke="#ff0000" stroke-width="0.5pt" stroke-opacity="1.00" stroke-dasharray="none" points="321.000,712.000 321.000,684.057 336.500,684.057 336.500,712.000 "/>
      <polygon fill="#ff0000" fill-opacity="0.30" stroke="#ff0000" stroke-width="0.5pt" stroke-opacity="1.00" stroke-dasharray="none" points="336.500,712.000 336.500,631.897 352.000,631.897 352.000,712.000 "/>
      <polygon fill="#ff0000" fill-opacity="0.30" stroke="#ff0000" stroke-width="0.5pt" stroke-opacity="1.00" stroke-dasharray="none" points="352.000,712.000 352.000,583.463 367.500,583.463 367.500,712.000 "/>
      <polygon fill="#ff0000" fill-opacity="0.30" stroke="#ff0000" stroke-width="0.5pt" stroke-opacity="1.00" stroke-dasharray="none" points="367.500,712.000 367.500,514.537 383.000,514.537 383.000,712.000 "/>
      <polygon fill="#ff0000" fill-opacity="0.30" stroke="#ff0000" stroke-width="0.5pt" stroke-opacity="1.00" stroke-dasharray="none" points="383.000,712.000 383.000,425.120 398.500,425.120 398.500,712.000 "/>
      <polygon fill="#ff0000" fill-opacity="0.30" stroke="#ff0000" stroke-width="0.5pt" stroke-opacity="1.00" stroke-dasharray="none" points="398.500,712.000 398.500,274.229 414.000,274.229 414.000,712.000 "/>
      <polygon fill="#ff0000" fill-opacity="0.30" stroke="#ff0000" stroke-width="0.5pt" stroke-opacity="1.00" stroke-dasharray="none" points="414.000,712.000 414.000,199.714 429.500,199.714 429.500,712.000 "/>
      <polygon fill="#ff0000" fill-opacity="0.30" stroke="#ff0000" stroke-width="0.5pt" stroke-opacity="1.00" stroke-dasharray="none" points="429.500,712.000 429.500,181.086 445.000,181.086 445.000,712.000 "/>
      <polygon fill="#ff0000" fill-opacity="0.30" stroke="#ff0000" stroke-width="0.5pt" stroke-opacity="1.00" stroke-dasharray="none" points="445.000,712.000 445.000,227.657 460.500,227.657 460.500,712.000 "/>
      <polygon fill="#ff0000" fill-opacity="0.30" stroke="#ff0000" stroke-width="0.5pt" stroke-opacity="1.00" stroke-dasharray="none" points="460.500,712.000 460.500,268.640 476.000,268.640 476.000,712.000 "/>
      <polygon fill="#ff0000" fill-opacity="0.30" stroke="#ff0000" stroke-width="0.5pt" stroke-opacity="1.00" stroke-dasharray="none" points="476.000,712.000 476.000,404.629 491.500,404.629 491.500,712.000 "/>
      <polygon fill="#ff0000" fill-opacity="0.30" stroke="#ff0000" stroke-width="0.5pt" stroke-opacity="1.00" stroke-dasharray="none" points="491.500,712.000 491.500,477.280 507.000,477.280 507.000,712.000 "/>
      <polygon fill="#ff0000" fill-opacity="0.30" stroke="#ff0000" stroke-width="0.5pt" stroke-opacity="1.00" stroke-dasharray="none" points="507.000,712.000 507.000,594.640 522.500,594.640 522.500,712.000 "/>
      <polygon fill="#ff0000" fill-opacity="0.30" stroke="#ff0000" stroke-width="0.5pt" stroke-opacity="1.00" stroke-dasharray="none" points="522.500,712.000 522.500,635.623 538.000,635.623 538.000,712.000 "/>
      <polygon fill="#ff0000" fill-opacity="0.30" stroke="#ff0000" stroke-width="0.5pt" stroke-opacity="1.00" stroke-dasharray="none" points="538.000,712.000 538.000,661.703 553.500,661.703 553.500,712.000 "/>
      <polygon fill="#ff0000" fill-opacity="0.30" stroke="#ff0000" stroke-width="0.5pt" stroke-opacity="1.00" stroke-dasharray="none" points="553.500,712.000 553.500,691.509 569.000,691.509 569.000,712.000 "/>
      <polygon fill="#ff0000" fill-opacity="0.30" stroke="#ff0000" stroke-width="0.5pt" stroke-opacity="1.00" stroke-dasharray="none" points="569.000,712.000 569.000,687.783 584.500,687.783 584.500,712.000 "/>
      <polygon fill="#ff0000" fill-opacity="0.30" stroke="#ff0000" stroke-width="0.5pt" stroke-opacity="1.00" stroke-dasharray="none" points="584.500,712.000 584.500,708.274 600.000,708.274 600.000,712.000 "/>
      <polygon fill="#ff0000" fill-opacity="0.30" stroke="#ff0000" stroke-width="0.5pt" stroke-opacity="1.00" stroke-dasharray="none" points="600.000,712.000 600.000,712.000 615.500,712.000 615.500,712.000 "/>
      <polygon fill="#ff0000" fill-opacity="0.30" stroke="#ff0000" stroke-width="0.5pt" stroke-opacity="1.00" stroke-dasharray="none" points="615.500,712.000 615.500,710.137 631.000,710.137 631.000,712.000 "/>
      <polygon fill="#ff0000" fill-opacity="0.30" stroke="#ff0000" stroke-width="0.5pt" stroke-opacity="1.00" stroke-dasharray="none" points="631.000,712.000 631.000,712.000 646.500,712.000 646.500,712.000 "/>
      <polygon fill="#ff0000" fill-opacity="0.30" stroke="#ff0000" stroke-width="0.5pt" stroke-opacity="1.00" stroke-dasharray="none" points="646.500,712.000 646.500,712.000 662.000,712.000 662.000,712.000 "/>
      <polygon fill="#ff0000" fill-opacity="0.30" stroke="#ff0000" stroke-width="0.5pt" stroke-opacity="1.00" stroke-dasharray="none" points="662.000,712.000 662.000,712.000 677.500,712.000 677.500,712.000 "/>
      <polygon fill="#ff0000" fill-opacity="0.30" stroke="#ff0000" stroke-width="0.5pt" stroke-opacity="1.00" stroke-dasharray="none" points="677.500,712.000 677.500,712.000 693.000,712.000 693.000,712.000 "/>
      <polygon fill="#ff0000" fill-opacity="0.30" stroke="#ff0000" stroke-width="0.5pt" stroke-opacity="1.00" stroke-dasharray="none" points="693.000,712.000 693.000,712.000 708.500,712.000 708.500,712.000 "/>
      <polygon fill="#ff0000" fill-opacity="0.30" stroke="#ff0000" stroke-width="0.5pt" stroke-opacity="1.00" stroke-dasharray="none" points="708.500,712.000 708.500,712.000 724.000,712.000 724.000,712.000 "/>
      <polygon fill="#ff0000" fill-opacity="0.30" stroke="#ff0000" stroke-width="0.5pt" stroke-opacity="1.00" stroke-dasharray="none" points="724.000,712.000 724.000,712.000 739.500,712.000 739.500,712.000 "/>
</g>
<g id="ID000004" >
  <g transform="translate(413.500,754.650)">
    <g transform="rotate(-0.0)">
      <text x="0.000" y="0.000" font-family="Helvetica" text-anchor="middle" font-size="17pt" fill="#000000" ><tspan>r</tspan><tspan dy="6.8pt" font-size="12pt">noise</tspan><tspan dy="-6.8pt" font-size="17pt"></tspan></text>
    </g>
  </g>
</g>
<g id="ID000005" >
  <g transform="translate(62.250,387.500)">
    <g transform="rotate(-90.0)">
      <text x="0.000" y="0.000" font-family="Helvetica" text-anchor="middle" font-size="17pt" fill="#000000" >Number of pairs</text>
    </g>
  </g>
</g>
<g id="ID000006" >
  <g transform="translate(413.500,46.750)">
    <g transform="rotate(-0.0)">
      <text x="0.000" y="0.000" font-family="Helvetica" text-anchor="middle" font-size="19pt" fill="#000000" >Jack V4: Pre- vs Post-training, all pairs and conditions</text>
    </g>
  </g>
</g>
<g id="ID000007" >
</g>
<g id="ID000008" >
</g>
    </g>
    <g>
      <polyline fill="none" stroke="#000000" stroke-width="0.5pt" stroke-dasharray="none" points="166.000,712.000 166.000,705.480 "/>
      <polyline fill="none" stroke="#000000" stroke-width="0.5pt" stroke-dasharray="none" points="228.000,712.000 228.000,705.480 "/>
      <polyline fill="none" stroke="#000000" stroke-width="0.5pt" stroke-dasharray="none" points="290.000,712.000 290.000,705.480 "/>
      <polyline fill="none" stroke="#000000" stroke-width="0.5pt" stroke-dasharray="none" points="352.000,712.000 352.000,705.480 "/>
      <polyline fill="none" stroke="#000000" stroke-width="0.5pt" stroke-dasharray="none" points="414.000,712.000 414.000,705.480 "/>
      <polyline fill="none" stroke="#000000" stroke-width="0.5pt" stroke-dasharray="none" points="476.000,712.000 476.000,705.480 "/>
      <polyline fill="none" stroke="#000000" stroke-width="0.5pt" stroke-dasharray="none" points="538.000,712.000 538.000,705.480 "/>
      <polyline fill="none" stroke="#000000" stroke-width="0.5pt" stroke-dasharray="none" points="600.000,712.000 600.000,705.480 "/>
      <polyline fill="none" stroke="#000000" stroke-width="0.5pt" stroke-dasharray="none" points="662.000,712.000 662.000,705.480 "/>
      <polyline fill="none" stroke="#000000" stroke-width="0.5pt" stroke-dasharray="none" points="104.000,712.000 724.000,712.000 "/>
      <polyline fill="none" stroke="#000000" stroke-width="0.5pt" stroke-dasharray="none" points="166.000,60.000 166.000,66.520 "/>
      <polyline fill="none" stroke="#000000" stroke-width="0.5pt" stroke-dasharray="none" points="228.000,60.000 228.000,66.520 "/>
      <polyline fill="none" stroke="#000000" stroke-width="0.5pt" stroke-dasharray="none" points="290.000,60.000 290.000,66.520 "/>
      <polyline fill="none" stroke="#000000" stroke-width="0.5pt" stroke-dasharray="none" points="352.000,60.000 352.000,66.520 "/>
      <polyline fill="none" stroke="#000000" stroke-width="0.5pt" stroke-dasharray="none" points="414.000,60.000 414.000,66.520 "/>
      <polyline fill="none" stroke="#000000" stroke-width="0.5pt" stroke-dasharray="none" points="476.000,60.000 476.000,66.520 "/>
      <polyline fill="none" stroke="#000000" stroke-width="0.5pt" stroke-dasharray="none" points="538.000,60.000 538.000,66.520 "/>
      <polyline fill="none" stroke="#000000" stroke-width="0.5pt" stroke-dasharray="none" points="600.000,60.000 600.000,66.520 "/>
      <polyline fill="none" stroke="#000000" stroke-width="0.5pt" stroke-dasharray="none" points="662.000,60.000 662.000,66.520 "/>
      <polyline fill="none" stroke="#000000" stroke-width="0.5pt" stroke-dasharray="none" points="104.000,60.000 724.000,60.000 "/>
  <g transform="translate(104.000,741.560)">
    <g transform="rotate(-0.0)">
      <text x="0.000" y="0.000" font-family="Helvetica" text-anchor="middle" font-size="14pt" fill="#000000" >-1</text>
    </g>
  </g>
  <g transform="translate(166.000,741.560)">
    <g transform="rotate(-0.0)">
      <text x="0.000" y="0.000" font-family="Helvetica" text-anchor="middle" font-size="14pt" fill="#000000" >-0.8</text>
    </g>
  </g>
  <g transform="translate(228.000,741.560)">
    <g transform="rotate(-0.0)">
      <text x="0.000" y="0.000" font-family="Helvetica" text-anchor="middle" font-size="14pt" fill="#000000" >-0.6</text>
    </g>
  </g>
  <g transform="translate(290.000,741.560)">
    <g transform="rotate(-0.0)">
      <text x="0.000" y="0.000" font-family="Helvetica" text-anchor="middle" font-size="14pt" fill="#000000" >-0.4</text>
    </g>
  </g>
  <g transform="translate(352.000,741.560)">
    <g transform="rotate(-0.0)">
      <text x="0.000" y="0.000" font-family="Helvetica" text-anchor="middle" font-size="14pt" fill="#000000" >-0.2</text>
    </g>
  </g>
  <g transform="translate(414.000,741.560)">
    <g transform="rotate(-0.0)">
      <text x="0.000" y="0.000" font-family="Helvetica" text-anchor="middle" font-size="14pt" fill="#000000" >0</text>
    </g>
  </g>
  <g transform="translate(476.000,741.560)">
    <g transform="rotate(-0.0)">
      <text x="0.000" y="0.000" font-family="Helvetica" text-anchor="middle" font-size="14pt" fill="#000000" >0.2</text>
    </g>
  </g>
  <g transform="translate(538.000,741.560)">
    <g transform="rotate(-0.0)">
      <text x="0.000" y="0.000" font-family="Helvetica" text-anchor="middle" font-size="14pt" fill="#000000" >0.4</text>
    </g>
  </g>
  <g transform="translate(600.000,741.560)">
    <g transform="rotate(-0.0)">
      <text x="0.000" y="0.000" font-family="Helvetica" text-anchor="middle" font-size="14pt" fill="#000000" >0.6</text>
    </g>
  </g>
  <g transform="translate(662.000,741.560)">
    <g transform="rotate(-0.0)">
      <text x="0.000" y="0.000" font-family="Helvetica" text-anchor="middle" font-size="14pt" fill="#000000" >0.8</text>
    </g>
  </g>
  <g transform="translate(724.000,741.560)">
    <g transform="rotate(-0.0)">
      <text x="0.000" y="0.000" font-family="Helvetica" text-anchor="middle" font-size="14pt" fill="#000000" >1</text>
    </g>
  </g>
      <polyline fill="none" stroke="#000000" stroke-width="0.5pt" stroke-dasharray="none" points="104.000,618.857 110.520,618.857 "/>
      <polyline fill="none" stroke="#000000" stroke-width="0.5pt" stroke-dasharray="none" points="104.000,525.714 110.520,525.714 "/>
      <polyline fill="none" stroke="#000000" stroke-width="0.5pt" stroke-dasharray="none" points="104.000,432.571 110.520,432.571 "/>
      <polyline fill="none" stroke="#000000" stroke-width="0.5pt" stroke-dasharray="none" points="104.000,339.429 110.520,339.429 "/>
      <polyline fill="none" stroke="#000000" stroke-width="0.5pt" stroke-dasharray="none" points="104.000,246.286 110.520,246.286 "/>
      <polyline fill="none" stroke="#000000" stroke-width="0.5pt" stroke-dasharray="none" points="104.000,153.143 110.520,153.143 "/>
      <polyline fill="none" stroke="#000000" stroke-width="0.5pt" stroke-dasharray="none" points="104.000,712.000 104.000,60.000 "/>
      <polyline fill="none" stroke="#000000" stroke-width="0.5pt" stroke-dasharray="none" points="724.000,618.857 717.480,618.857 "/>
      <polyline fill="none" stroke="#000000" stroke-width="0.5pt" stroke-dasharray="none" points="724.000,525.714 717.480,525.714 "/>
      <polyline fill="none" stroke="#000000" stroke-width="0.5pt" stroke-dasharray="none" points="724.000,432.571 717.480,432.571 "/>
      <polyline fill="none" stroke="#000000" stroke-width="0.5pt" stroke-dasharray="none" points="724.000,339.429 717.480,339.429 "/>
      <polyline fill="none" stroke="#000000" stroke-width="0.5pt" stroke-dasharray="none" points="724.000,246.286 717.480,246.286 "/>
      <polyline fill="none" stroke="#000000" stroke-width="0.5pt" stroke-dasharray="none" points="724.000,153.143 717.480,153.143 "/>
      <polyline fill="none" stroke="#000000" stroke-width="0.5pt" stroke-dasharray="none" points="724.000,712.000 724.000,60.000 "/>
  <g transform="translate(91.600,718.300)">
    <g transform="rotate(-0.0)">
      <text x="0.000" y="0.000" font-family="Helvetica" text-anchor="end" font-size="14pt" fill="#000000" >0</text>
    </g>
  </g>
  <g transform="translate(91.600,625.157)">
    <g transform="rotate(-0.0)">
      <text x="0.000" y="0.000" font-family="Helvetica" text-anchor="end" font-size="14pt" fill="#000000" >50</text>
    </g>
  </g>
  <g transform="translate(91.600,532.014)">
    <g transform="rotate(-0.0)">
      <text x="0.000" y="0.000" font-family="Helvetica" text-anchor="end" font-size="14pt" fill="#000000" >100</text>
    </g>
  </g>
  <g transform="translate(91.600,438.871)">
    <g transform="rotate(-0.0)">
      <text x="0.000" y="0.000" font-family="Helvetica" text-anchor="end" font-size="14pt" fill="#000000" >150</text>
    </g>
  </g>
  <g transform="translate(91.600,345.729)">
    <g transform="rotate(-0.0)">
      <text x="0.000" y="0.000" font-family="Helvetica" text-anchor="end" font-size="14pt" fill="#000000" >200</text>
    </g>
  </g>
  <g transform="translate(91.600,252.586)">
    <g transform="rotate(-0.0)">
      <text x="0.000" y="0.000" font-family="Helvetica" text-anchor="end" font-size="14pt" fill="#000000" >250</text>
    </g>
  </g>
  <g transform="translate(91.600,159.443)">
    <g transform="rotate(-0.0)">
      <text x="0.000" y="0.000" font-family="Helvetica" text-anchor="end" font-size="14pt" fill="#000000" >300</text>
    </g>
  </g>
  <g transform="translate(91.600,66.300)">
    <g transform="rotate(-0.0)">
      <text x="0.000" y="0.000" font-family="Helvetica" text-anchor="end" font-size="14pt" fill="#000000" >350</text>
    </g>
  </g>
      <polyline fill="none" stroke="#000000" stroke-width="0.5pt" stroke-dasharray="none" points="104.000,712.000 104.000,705.480 "/>
      <polyline fill="none" stroke="#000000" stroke-width="0.5pt" stroke-dasharray="none" points="104.000,712.000 104.000,712.000 "/>
    </g>
  </g>
  <g id ="ID000009">
  <clipPath id="ID000010">
    <rect x="6744.750" y="582.250" width="199.500" height="49.625"/>
  </clipPath>
      <polygon fill="#ffffff" fill-opacity="1.00" stroke="none" stroke-width="0.5pt" stroke-opacity="1.00" stroke-dasharray="none" points="6744.750,631.875 6944.250,631.875 6944.250,582.250 6744.750,582.250 "/>
      <polygon fill="#ffffff" fill-opacity="1.00" stroke="none" stroke-width="0.5pt" stroke-opacity="1.00" stroke-dasharray="none" points="6744.750,582.250 6944.250,582.250 6944.250,582.250 6744.750,582.250 "/>
      <polygon fill="#ffffff" fill-opacity="1.00" stroke="none" stroke-width="0.5pt" stroke-opacity="1.00" stroke-dasharray="none" points="6744.750,631.875 6744.750,631.875 6744.750,582.250 6744.750,582.250 "/>
    <g>
<g id="ID000011" >
  <g transform="translate(6794.374,602.941)">
    <g transform="rotate(-0.0)">
      <text x="0.000" y="0.000" font-family="Helvetica" text-anchor="start" font-size="14pt" fill="#000000" >s27: Before Training</text>
    </g>
  </g>
</g>
<g id="ID000012" clip-path="url(#ID000010)" >
      <polygon fill="#000000" fill-opacity="1.00" stroke="#000000" stroke-width="0.5pt" stroke-opacity="1.00" stroke-dasharray="none" points="6752.250,604.237 6752.250,587.262 6789.750,587.262 6789.750,604.237 "/>
</g>
<g id="ID000013" >
  <g transform="translate(6794.374,625.769)">
    <g transform="rotate(-0.0)">
      <text x="0.000" y="0.000" font-family="Helvetica" text-anchor="start" font-size="14pt" fill="#000000" >s46: After Training</text>
    </g>
  </g>
</g>
<g id="ID000014" clip-path="url(#ID000010)" >
      <polygon fill="#ff0000" fill-opacity="1.00" stroke="#ff0000" stroke-width="0.5pt" stroke-opacity="1.00" stroke-dasharray="none" points="6752.250,626.862 6752.250,609.887 6789.750,609.887 6789.750,626.862 "/>
</g>
<g id="ID000015" >
</g>
<g id="ID000016" >
</g>
<g id="ID000017" >
</g>
    </g>
    <g>
      <polyline fill="none" stroke="#000000" stroke-width="0.5pt" stroke-dasharray="none" points="6744.750,631.875 6944.250,631.875 "/>
      <polyline fill="none" stroke="#000000" stroke-width="0.5pt" stroke-dasharray="none" points="6744.750,582.250 6944.250,582.250 "/>
      <polyline fill="none" stroke="#000000" stroke-width="0.5pt" stroke-dasharray="none" points="6744.750,631.875 6744.750,582.250 "/>
      <polyline fill="none" stroke="#000000" stroke-width="0.5pt" stroke-dasharray="none" points="6944.250,631.875 6944.250,582.250 "/>
      <polyline fill="none" stroke="#000000" stroke-width="0.5pt" stroke-dasharray="none" points="6744.750,631.875 6744.750,631.379 "/>
      <polyline fill="none" stroke="#000000" stroke-width="0.5pt" stroke-dasharray="none" points="6744.750,631.875 6744.750,631.875 "/>
    </g>
  </g>
  </g>
</svg>
